<?xml version="1.0" standalone="no"?>
<!DOCTYPE svg PUBLIC "-//W3C//DTD SVG 20010904//EN"
 "http://www.w3.org/TR/2001/REC-SVG-20010904/DTD/svg10.dtd">
<svg version="1.0" xmlns="http://www.w3.org/2000/svg"
 width="182.000000pt" height="103.000000pt" viewBox="0 0 182.000000 103.000000"
 preserveAspectRatio="xMidYMid meet">
<metadata>
Created by potrace 1.11, written by Peter Selinger 2001-2013
</metadata>
<g transform="translate(0.000000,103.000000) scale(0.100000,-0.100000)"
fill="#000000" stroke="none">
<path d="M0 575 l0 -455 860 0 860 0 0 455 0 455 -860 0 -860 0 0 -455z m390
236 c31 -26 35 -34 35 -77 0 -44 -8 -61 -83 -172 -45 -68 -82 -125 -82 -128 0
-2 38 -4 85 -4 84 0 85 0 85 -25 l0 -25 -110 0 -110 0 0 35 c0 28 18 62 81
157 90 133 101 166 70 197 -28 28 -63 26 -93 -4 -26 -25 -58 -26 -58 -1 0 14
48 61 70 69 38 14 77 6 110 -22z m351 -19 c42 -47 38 -123 -9 -158 -14 -10
-13 -13 5 -22 38 -21 50 -106 24 -170 -17 -42 -64 -62 -143 -62 l-64 0 0 226
-1 226 80 -4 c74 -3 80 -5 108 -36z m180 -34 c1 -92 9 -252 13 -256 2 -1 15
28 29 65 13 37 30 68 37 68 7 0 24 -31 37 -68 14 -37 27 -66 28 -65 4 4 14
182 15 261 0 66 1 67 26 67 l27 0 -7 -132 c-7 -141 -15 -250 -21 -283 -2 -11
-4 -23 -4 -27 -1 -5 -9 -8 -20 -8 -14 0 -25 18 -47 80 -15 44 -31 80 -35 80
-4 0 -20 -36 -35 -80 -21 -59 -33 -80 -46 -80 -26 0 -30 24 -44 313 l-7 137
27 0 c26 0 26 -1 27 -72z m376 -13 c19 -44 37 -83 41 -87 4 -4 23 32 42 80 30
74 39 87 60 90 l25 3 -1 -218 c-1 -120 -2 -221 -3 -225 0 -5 -12 -8 -25 -8
l-24 0 2 166 1 166 -27 -58 c-15 -33 -27 -65 -28 -72 0 -8 -8 -12 -17 -10 -11
2 -28 27 -43 66 -14 34 -27 62 -30 62 -3 0 -5 -72 -5 -160 l0 -161 -25 3 -25
3 -1 215 c0 118 2 219 4 223 2 5 13 7 25 5 15 -2 29 -24 54 -83z"/>
<path d="M609 773 c-1 -5 -2 -34 -3 -65 l-1 -58 41 0 c49 0 74 23 74 67 0 16
-8 37 -18 46 -18 17 -91 24 -93 10z"/>
<path d="M609 598 c-1 -2 -2 -40 -3 -85 l-1 -83 40 0 c59 1 77 19 78 79 0 65
-21 91 -75 91 -21 0 -39 -1 -39 -2z"/>
<path d="M1740 565 l0 -465 -870 0 -870 0 0 -25 0 -25 890 0 890 0 0 490 c0
483 0 490 -20 490 -20 0 -20 -7 -20 -465z"/>
<path d="M1800 530 l0 -500 -900 0 c-793 0 -900 -2 -900 -15 0 -13 108 -15
910 -15 l910 0 0 515 c0 337 -3 515 -10 515 -7 0 -10 -173 -10 -500z"/>
</g>
</svg>
