<?xml version="1.0" encoding="UTF-8" standalone="no"?>
<!-- Created with Inkscape (http://www.inkscape.org/) -->

<svg
   xmlns:dc="http://purl.org/dc/elements/1.1/"
   xmlns:cc="http://creativecommons.org/ns#"
   xmlns:rdf="http://www.w3.org/1999/02/22-rdf-syntax-ns#"
   xmlns:svg="http://www.w3.org/2000/svg"
   xmlns="http://www.w3.org/2000/svg"
   xmlns:xlink="http://www.w3.org/1999/xlink"
   xmlns:sodipodi="http://sodipodi.sourceforge.net/DTD/sodipodi-0.dtd"
   xmlns:inkscape="http://www.inkscape.org/namespaces/inkscape"
   width="256"
   height="256"
   id="svg2424"
   sodipodi:version="0.32"
   inkscape:version="0.48.4 r9939"
   version="1.0"
   sodipodi:docname="archlinux-wm-twm.svg"
   inkscape:output_extension="org.inkscape.output.svg.inkscape"
   inkscape:export-filename="/u2/code/xde-icons/xde-icons/src/icons/hicolor/48x48/archlinux-wm-twm.png"
   inkscape:export-xdpi="16.879999"
   inkscape:export-ydpi="16.879999">
  <defs
     id="defs2426">
    <linearGradient
       gradientUnits="userSpaceOnUse"
       id="path1082_2_"
       y2="129.3468"
       x2="112.49853"
       y1="6.1372099"
       x1="112.49854"
       gradientTransform="translate(287,-83)">
      <stop
         id="stop193"
         offset="0"
         style="stop-color:#ffffff;stop-opacity:0" />
      <stop
         id="stop195"
         offset="1"
         style="stop-color:#ffffff;stop-opacity:0.27450982;" />
      <midPointStop
         id="midPointStop197"
         style="stop-color:#FFFFFF"
         offset="0" />
      <midPointStop
         id="midPointStop199"
         style="stop-color:#FFFFFF"
         offset="0.5" />
      <midPointStop
         id="midPointStop201"
         style="stop-color:#000000"
         offset="1" />
    </linearGradient>
    <linearGradient
       inkscape:collect="always"
       xlink:href="#path1082_2_"
       id="linearGradient2544"
       gradientUnits="userSpaceOnUse"
       gradientTransform="matrix(-0.6066055,0,0,0.6065715,524.31501,9.2325237)"
       x1="541.33502"
       y1="104.50665"
       x2="606.91248"
       y2="303.14029" />
    <linearGradient
       id="linearGradient3388">
      <stop
         style="stop-color:#000000;stop-opacity:0;"
         offset="0"
         id="stop3390" />
      <stop
         style="stop-color:#000000;stop-opacity:0.37113401;"
         offset="1"
         id="stop3392" />
    </linearGradient>
    <linearGradient
       inkscape:collect="always"
       xlink:href="#linearGradient3388"
       id="linearGradient4416"
       gradientUnits="userSpaceOnUse"
       gradientTransform="matrix(0.749107,0,0,0.749107,-35.459862,91.44108)"
       x1="490.72305"
       y1="237.72447"
       x2="490.72305"
       y2="183.9644" />
    <linearGradient
       inkscape:collect="always"
       id="linearGradient4346">
      <stop
         style="stop-color:#00bdec;stop-opacity:1"
         offset="0"
         id="stop4348" />
      <stop
         style="stop-color:#40bfde;stop-opacity:1"
         offset="1"
         id="stop4350" />
    </linearGradient>
    <linearGradient
       inkscape:collect="always"
       xlink:href="#linearGradient4346"
       id="linearGradient4352"
       x1="400.6142"
       y1="634.15063"
       x2="616.48553"
       y2="666.97791"
       gradientUnits="userSpaceOnUse" />
    <linearGradient
       inkscape:collect="always"
       id="linearGradient5323">
      <stop
         style="stop-color:#6e6e6e;stop-opacity:1"
         offset="0"
         id="stop5325" />
      <stop
         style="stop-color:#4d4d4d;stop-opacity:1"
         offset="1"
         id="stop5327" />
    </linearGradient>
    <linearGradient
       inkscape:collect="always"
       xlink:href="#linearGradient5323"
       id="linearGradient5329"
       x1="291.83591"
       y1="238.08237"
       x2="650.81366"
       y2="348.96875"
       gradientUnits="userSpaceOnUse" />
    <linearGradient
       inkscape:collect="always"
       xlink:href="#linearGradient5323"
       id="linearGradient2475"
       gradientUnits="userSpaceOnUse"
       x1="291.83591"
       y1="238.08237"
       x2="650.81366"
       y2="348.96875" />
    <linearGradient
       inkscape:collect="always"
       xlink:href="#linearGradient5323"
       id="linearGradient2477"
       gradientUnits="userSpaceOnUse"
       x1="291.83591"
       y1="238.08237"
       x2="650.81366"
       y2="348.96875" />
    <linearGradient
       inkscape:collect="always"
       xlink:href="#linearGradient5323"
       id="linearGradient2479"
       gradientUnits="userSpaceOnUse"
       x1="291.83591"
       y1="238.08237"
       x2="650.81366"
       y2="348.96875" />
    <linearGradient
       inkscape:collect="always"
       xlink:href="#linearGradient5323"
       id="linearGradient2481"
       gradientUnits="userSpaceOnUse"
       x1="291.83591"
       y1="238.08237"
       x2="650.81366"
       y2="348.96875" />
    <linearGradient
       inkscape:collect="always"
       xlink:href="#linearGradient4346"
       id="linearGradient2483"
       gradientUnits="userSpaceOnUse"
       x1="400.6142"
       y1="634.15063"
       x2="616.48553"
       y2="666.97791" />
    <linearGradient
       inkscape:collect="always"
       xlink:href="#linearGradient4346"
       id="linearGradient2485"
       gradientUnits="userSpaceOnUse"
       x1="400.6142"
       y1="634.15063"
       x2="616.48553"
       y2="666.97791" />
    <linearGradient
       inkscape:collect="always"
       xlink:href="#linearGradient4346"
       id="linearGradient2487"
       gradientUnits="userSpaceOnUse"
       x1="400.6142"
       y1="634.15063"
       x2="616.48553"
       y2="666.97791" />
    <linearGradient
       inkscape:collect="always"
       xlink:href="#linearGradient4346"
       id="linearGradient2489"
       gradientUnits="userSpaceOnUse"
       x1="400.6142"
       y1="634.15063"
       x2="616.48553"
       y2="666.97791" />
    <linearGradient
       inkscape:collect="always"
       xlink:href="#linearGradient4346"
       id="linearGradient2491"
       gradientUnits="userSpaceOnUse"
       x1="400.6142"
       y1="634.15063"
       x2="616.48553"
       y2="666.97791" />
  </defs>
  <sodipodi:namedview
     id="base"
     pagecolor="#ffffff"
     bordercolor="#666666"
     borderopacity="1.0"
     gridtolerance="10000"
     guidetolerance="10"
     objecttolerance="10"
     inkscape:pageopacity="0.0"
     inkscape:pageshadow="2"
     inkscape:zoom="2"
     inkscape:cx="-17.138914"
     inkscape:cy="70.59426"
     inkscape:document-units="px"
     inkscape:current-layer="g2424"
     inkscape:window-width="1850"
     inkscape:window-height="1180"
     inkscape:window-x="0"
     inkscape:window-y="0"
     showgrid="false"
     inkscape:window-maximized="1" />
  <metadata
     id="metadata2429">
    <rdf:RDF>
      <cc:Work
         rdf:about="">
        <dc:format>image/svg+xml</dc:format>
        <dc:type
           rdf:resource="http://purl.org/dc/dcmitype/StillImage" />
        <dc:title></dc:title>
      </cc:Work>
    </rdf:RDF>
  </metadata>
  <g
     inkscape:label="Layer 1"
     inkscape:groupmode="layer"
     id="layer1"
     transform="translate(-57.51784,-56.601259)">
    <g
       id="g2424"
       transform="matrix(0.8746356,0,0,0.8746356,14.730518,23.408954)">
      <path
         id="path2518"
         d="M 195.24898,37.953749 C 182.2209,69.89511 174.34097,90.817121 159.83592,121.80898 C 168.72933,131.236 179.66297,142.17331 197.39091,154.57218 C 178.33163,146.7294 165.33914,138.87626 155.62346,130.70543 C 137.05977,169.44143 107.94092,224.5949 48.92017,330.64319 C 170.30399,260.56618 220.39027,260.65883 341.61349,330.64319 C 332.59039,314.031 324.49412,299.06512 316.80293,284.80327 C 304.68806,275.41342 292.06517,263.19767 266.2893,249.96779 C 284.00616,254.57136 296.70536,259.89458 306.59309,265.83134 C 228.39463,120.23947 222.06497,100.88324 195.24898,37.953749 z "
         style="fill:#1793d1;fill-opacity:1;fill-rule:evenodd;stroke:none;stroke-width:1;stroke-linecap:round;stroke-linejoin:round;stroke-miterlimit:10;stroke-dasharray:none;stroke-opacity:1" />
      <path
         sodipodi:nodetypes="ccc"
         id="path2522"
         d="M 277.64601,211.9169 C 214.20638,125.81103 199.50175,56.412315 195.77712,39.843809 C 229.61766,117.89834 229.38652,118.85552 277.64601,211.9169 z "
         style="fill:#ffffff;fill-opacity:0.16568047;fill-rule:evenodd;stroke:none;stroke-width:36.09999847;stroke-linecap:butt;stroke-linejoin:round;stroke-miterlimit:10;stroke-opacity:1" />
      <path
         style="fill:url(#linearGradient2544);fill-opacity:1;fill-rule:evenodd;stroke:none;stroke-width:0.71416688;stroke-linecap:round;stroke-linejoin:round;stroke-miterlimit:10;stroke-dasharray:none;stroke-opacity:1"
         d="M 128.46875 1.09375 C 127.04537 4.5929332 125.65868 7.9885065 124.34375 11.21875 C 122.88704 14.797158 121.50179 18.21332 120.125 21.5625 C 118.74833 24.911721 117.38391 28.180178 116.03125 31.40625 C 114.6785 34.632469 113.32212 37.822005 111.9375 41.03125 C 110.55297 44.240371 109.15981 47.483055 107.6875 50.78125 C 106.21519 54.079554 104.67835 57.444048 103.0625 60.9375 C 101.44651 64.430987 99.752803 68.049112 97.9375 71.84375 C 97.686063 72.369329 97.380881 72.967482 97.125 73.5 C 104.87955 81.713222 114.42652 91.217236 129.84375 102 C 113.21668 95.158054 101.86555 88.314206 93.375 81.1875 C 92.934181 82.087426 92.547895 82.890998 92.09375 83.8125 C 91.495997 85.025462 90.778291 86.40369 90.15625 87.65625 C 89.840832 88.302978 89.509737 88.998738 89.1875 89.65625 C 81.155622 106.045 70.844553 126.07711 56.96875 152.03125 C 89.434347 133.73963 124.45214 107.34926 188.0625 130.0625 C 184.87318 124.022 181.94116 118.35715 179.1875 113.03125 C 176.43388 107.70518 173.87554 102.71647 171.5 98 C 169.12464 93.283632 166.92957 88.836958 164.875 84.625 C 162.82045 80.41314 160.916 76.437731 159.125 72.625 C 157.3339 68.812358 155.64736 65.143564 154.0625 61.625 C 152.47754 58.106481 150.96749 54.735691 149.53125 51.40625 C 148.09486 48.076634 146.71986 44.807946 145.375 41.5625 C 144.03001 38.316959 142.71709 35.079261 141.40625 31.8125 C 141.07332 30.982987 140.73929 30.116376 140.40625 29.28125 C 136.67793 20.541575 132.89919 11.50108 128.46875 1.09375 z "
         id="path2520"
         transform="matrix(1.1433333,0,0,1.1433333,48.92017,37.949867)" />
      <g
         transform="matrix(0.29648814,0,0,0.23812547,117.34804,37.636479)"
         id="layer1-0"
         inkscape:label="Layer 1">
        <path
           sodipodi:nodetypes="aaaaaaaaasaaa"
           inkscape:connector-curvature="0"
           id="path3068"
           d="m 326.22622,590.42698 c 36.48566,-0.0273 73.06343,-2.99073 109.45691,-0.16383 13.94506,1.08319 33.78307,-6.16248 41.50961,6.54488 7.47638,12.29594 -0.30387,32.85344 -10.27986,42.81833 -9.11622,9.10606 -24.25482,5.50289 -36.56143,6.77612 -24.17568,2.50118 -48.55499,1.28482 -72.83682,1.65498 -39.45043,0.60139 -78.9057,1.0352 -118.35985,0.91943 -53.30204,-0.1564 -106.68763,1.30049 -159.894218,-2.1805 -10.027624,-0.65605 -23.519495,4.88407 -29.963541,-3.52092 -8.204022,-10.70054 -6.786248,-32.3953 2.707587,-41.74136 13.978398,-13.76082 45.844945,-8.27965 68.987872,-10.06691 37.86001,-2.92383 75.90595,-0.86685 113.86042,-1.04022 30.45751,-0.13913 60.91555,0.0228 91.37332,0 z"
           style="fill:#ff0000;fill-opacity:1;stroke:#ff0101;stroke-width:0.9860453px;stroke-linecap:butt;stroke-linejoin:miter;stroke-opacity:1" />
        <path
           sodipodi:nodetypes="cssssccssssccssssccsssscc"
           inkscape:connector-curvature="0"
           id="path3070"
           d="m 154.3742,756.47798 c 0.47068,59.86567 1.74817,94.27618 6.35418,141.05331 1.91474,19.44563 3.61319,42.62163 9.17824,61.09578 5.61694,18.64632 9.19366,39.08459 24.00468,48.79463 4.51353,2.959 11.15413,2.4015 15.53244,-0.8202 13.38453,-9.84818 25.06367,-47.15436 25.06367,-47.15436 l 2.11809,-2e-5 c 0,0 10.88738,39.87037 25.06367,49.61468 3.95462,2.7183 10.06153,2.3359 13.76741,-0.82 11.14029,-9.48702 15.44185,-26.86709 19.41553,-42.23403 5.41931,-20.95747 7.74178,-41.9252 10.59028,-63.556 6.26348,-47.56303 6.70719,-147.2039 6.70719,-147.2039 l -22.59261,0.82008 c 0,0 -1.92221,93.87481 -6.70719,136.13285 -2.18904,19.33204 -2.33008,50.80124 -12.70835,72.26931 -2.23435,4.62192 -9.13614,3.04126 -10.59029,0.1026 -11.32005,-22.87722 -12.10229,-42.13932 -13.76739,-61.30082 -3.94424,-45.38892 -2.47107,-147.20388 -2.47107,-147.20388 l -18.70953,0.41003 c 0,0 0.7184,103.4731 -4.23612,153.76452 -1.56741,15.91002 -1.68428,35.76711 -11.1198,54.94518 -1.64936,3.3524 -10.40292,3.53632 -11.73758,0 -7.41801,-19.65469 -10.60507,-41.73967 -13.14962,-59.4556 -6.74763,-46.97884 -7.7662,-148.43401 -7.7662,-148.43401 z"
           style="fill:#ff0101;fill-opacity:1;stroke:#ff0101;stroke-width:1.06528032px;stroke-linecap:butt;stroke-linejoin:miter;stroke-opacity:1" />
        <path
           sodipodi:nodetypes="ccccssssssccssssssccsssssccsssccc"
           inkscape:connector-curvature="0"
           id="path3091"
           d="m 343.76557,744.58421 0,86.9907 -0.70314,174.82999 25.31292,0 c 0,0 -1.54159,-66.27635 0.35157,-99.2966 1.57553,-27.4804 4.59084,-53.4295 9.14078,-81.89856 1.85634,-11.6152 4.77233,-25.41344 13.00802,-31.82586 2.95597,-2.30157 7.64533,-2.82435 10.54705,-0.42435 6.45092,5.3355 7.72542,17.29477 7.73451,26.73373 0.032,33.22702 0.29297,60.53961 0.35156,90.80981 0.062,31.96722 0,95.90183 0,95.90183 l 23.55507,-0.4242 c 0,0 -0.12502,-63.08633 10e-6,-94.62895 0.11721,-29.5637 -0.71989,-54.73391 0.70314,-88.68807 0.52597,-12.54978 6.82682,-26.71264 16.17214,-32.25023 3.70584,-2.19589 9.11057,-1.45922 12.3049,1.69738 6.19391,6.12077 6.01902,18.06163 7.38294,27.58242 4.3348,30.25904 1.76106,61.38132 2.28519,92.08285 0.536,31.39685 0.87892,94.2046 0.87892,94.2046 l 25.31292,-0.8488 c 0,0 -1.05234,-67.62564 -2.1094,-101.41835 -1.05366,-33.68347 2.48204,-68.27136 -4.21884,-100.9941 -2.13871,-10.44414 -6.00403,-20.5822 -11.25018,-29.27979 -3.75831,-6.23094 -8.13493,-12.83537 -14.06273,-15.70077 -7.07216,-3.41855 -16.09013,-4.66007 -22.85195,-0.42434 -8.68388,5.43977 -18.28155,30.55284 -18.28155,30.55284 l -3.51568,-0.42434 c 0,0 -7.90518,-25.25971 -15.82059,-30.97719 -5.83324,-4.21347 -14.51926,-3.71061 -20.39096,0.42435 -5.98916,4.21767 -8.66913,11.30006 -11.95332,18.67116 -2.90435,6.51859 -8.08608,25.03637 -8.08608,25.03637 l -1.0547,-51.77008 z"
           style="fill:#ff0101;fill-opacity:1;stroke:#ff0101;stroke-width:1.0814898px;stroke-linecap:butt;stroke-linejoin:miter;stroke-opacity:1" />
        <path
           sodipodi:nodetypes="cssccssscsssssc"
           inkscape:connector-curvature="0"
           id="path3861"
           d="m 43.211544,936.1415 c 0,0 16.756288,-53.11427 27.659241,-97.78074 9.494978,-38.89837 18.667945,-76.84942 29.089891,-115.46447 8.255944,-30.58966 23.367284,-92.05952 23.367284,-92.05952 l 39.58133,-8.32177 c 0,0 -7.41707,37.24612 -11.92208,55.6518 -10.53211,43.03008 -15.48735,71.83739 -32.90497,131.06779 -9.74139,33.12665 -17.86849,68.88916 -26.228583,102.46172 -5.38868,21.63992 -4.768834,44.20938 -4.768834,44.20938 0,0 3.298395,15.19884 16.214037,16.12341 9.21225,0.65946 4.45671,22.41054 -1.43065,30.1664 -4.385248,5.777 -28.91748,3.5901 -43.873277,3.6408 -13.050252,0.044 -35.701884,2.3374 -40.058212,-3.6408 -5.821034,-7.98826 -4.981513,-27.77559 4.291952,-29.12618 10.498911,-1.52907 20.982871,-36.92782 20.982871,-36.92782 z"
           style="fill:#ff0101;fill-opacity:1;stroke:#ff0101;stroke-width:0.9860453px;stroke-linecap:butt;stroke-linejoin:miter;stroke-opacity:1" />
      </g>
    </g>
  </g>
</svg>
