/* XPM */
static char * chbg_64x64_xpm[] = {
"64 64 21 1",
" 	c None",
".	c #0C0C0D",
"+	c #8D8D8F",
"@	c #50505C",
"#	c #980A1F",
"$	c #2F2F37",
"%	c #CB4B5D",
"&	c #CECDCD",
"*	c #510A15",
"=	c #6D6D72",
"-	c #8F2F3D",
";	c #AFAFB0",
">	c #BD6F7C",
",	c #EEEEEE",
"'	c #CF8C96",
")	c #C63248",
"!	c #602A32",
"~	c #864C54",
"{	c #D90324",
"]	c #0307D6",
"^	c #DDAAB1",
"..$.@$.$+@..$@+++@$....$@==+++;;+;;+++==@$....$@=++=$..@=@.$@.$.",
".$.@..@=@..$+++@....$@=+;;;;;;;;;;;;;;;;;+=@$...$@++=@..@=@..@.$",
"$.@..==$..=++=$...$=+;;;;;+++=======+++=$;;;+=$...$=++=..$==..@.",
".@$.==$.$=++@...@=+;;;++=$$$]]]...$.$$]]$++;;;+=$...$++=$.$==..@",
"@..==..$++=$..$@+;&;+@$]]]]]]]]]....]]]]]$@=+;;;+=$..$=++$..==.$",
"$.@=..$++=...$+;;;+@]]]]]]]]]]]$$$$$]]]]]..$$=+;;;=@..$@++$.$=@.",
".@=$.$++@..$@+;;+=]]]]]]]]]]]]]+++==]]]]].....$=+;;+@$..@++$.$=@",
"@=$.$++@..$=;;;=@]]]]]]]]]]]]]=&;&&&@]]]$@$$....@+;&+=$..@++$.$=",
"=@.$++@..$=;;+=$]]]]]]]]]]]]]]&&&&&&+]]]@;+@@....$@+;;=$..@++$.$",
"@..=+=..$+;;+@$]]]]]]]]]]]]]]@&;&;;&+]]]$=@]]]]]..$@+;;+$..@+=$.",
"..=+=$.$=;;+@..]]]]]]]@=++=@$=+==+=++]]]]]]]]]]]]]..@+;;=$.$=+@.",
".@+=$..=;;+@..]]]]]]+&&;+==@@$@$$$@$@]]]]]]]]]]]]]]..@+;;=..$++@",
"$=+@..@;;+@...]]]]]&&;+=@@$$.........]]]]]]]]]]]]]]...@+;;@..@+=",
"=+=..@+;;@...]]]]$;;+=@$$............]]]]]]]]]]]]]]]...@+;;$..=+",
"++$.$+;;@$..$]]]];;+@@...............]]]]]]]]]]]]]]]@..$=;;+$.$+",
"+@..@;;+$..$@]]]]+=@$.......$$$$$$$$$]]]]]]]]]]]]]]]=$..$=;;@..@",
"=$.$+;+@..$==]]]@=@......$$@@@====@@@$]]]]]]]]]]]]]];@$..@+;+$.$",
"@..=;;=...@++]]]$$$....$$@@=+++++;+++@]]]$....]]]]]]&+@...=;;=..",
"$.$;;+$..$+;+]]]]$....$@@++;;;&&&&;;;=]]$@$....]]]]]&&+$..$+;+@.",
"..=;;=...=;&&]]]]...$$@=+;;&&,&,&,,&&+]]$=@$...]]]]@&&;@$..=;;=.",
".$+;+$..@+&&&$]]]]..$=++;&&,,,,,,,,,,+]]@++@@..]]]]@&&&+$..$+;+$",
".@;;=$..=;&&;@]]]]]$@++&&&,,,,,,,,,,,;]]@&++@$.]]]]@;&&;=$.$=;;@",
".=;+@..$+&&&+@]]]]]]@;;&,,,,,,,,,,,,,;]]@&&;==$]]]]@+&&&=$..@+;=",
"$+;+$..@+&&;=$]]]]]]]]@;&,,,,&;=@&,,,;]]@,&&+=@]]].$=;&&;@..$+;+",
"@;;=..$=&&&+@$.]]]]]]]]]]]]]]]]]]+,&,+]]@,,&;+@]]].$@+&&;=$..=;;",
"=;;@..$+&&;+$...]]]]]]]]]]]]]]]]]+&&&@]]@,,,&;@]]]..@=&&&+$..@;;",
"=;+@..@+&&;=$...$$]]]]]]]]]]]]]]]=;&&@]]=,,,&;]]]...$=;&&;@..@+;",
"+;+$..=;&&;@....@==]]]]]]]]]]]]]]=;;;&&,,,,,,=]]$...$@+&&;@..$+;",
"+;+$..=;&&+@...$@+;&+@]]]]]]]]]]]=+;;;&&,,,,,+]]@$...@+&&;=$.$=;",
"+;=..$+&&;+@...$@+&&,,&+@]]]]]]]]=++;;&&,,,,,,;=@$...$+&&&=$.$+;",
";;=..$=&&;=$...$=+&&,,,,,&&+==@=@+++;;;&&,,,,&&+=$...@=;&&=$..=;",
";;=..$+&,;+$...$=+&,,,,,&&;;++++=++++;;&,,,,,,&+=$...$+;&&+$..=;",
";;=..$+;&;=$...$=+&,,,,,&&;;+++=+=+++;;&&,,,,,;;=$...$=;&&+$..=;",
"+;=..$+&&;+$...@-)%%%%%%%%>+++++=++++;;&&,,,,&&+=$...@=&&;+$..=;",
";;=..$=&&&=$...${{{{{{{{{{{{)++++++++;;&,,,,,,&+=$...$=&&&=$..=;",
"+;=..$=&&;+@...${{{{{{{{{{{{{{+++++;;;;&,,,,,&;+@$...@=&&&=$.$=;",
"+&+$..=&&&+@...${{{{%%){{{{{{{{+++;+;&&&,,,,,&;+@$...@+&&;=..$=;",
"+;+$.$@;&&+@....{{{%,,,,>{{{{{{>;;;;;&&,,,,,,&;=@...$@+&&;=..$+;",
"=;+@..@;&&;=$...{{{)&,,,,'{{{{{);;;&&&&,,,,,&;+@$...$=;&&+@..@+;",
"=;;@..$+&&;+$...{{{)&,,,,,{{{{{%&&&&&,,,,,'%{{{{##..@=&&&+$..@;;",
"@+;=..$=;,&+@$..{{{);&,,,,{{{{{%&&&,,,,,){{{{{{{{{{#@+&&&=$..=;;",
"$+;+$..@;&&;=$..{{{{>&&,,%{{{{{',,,,,,^{{{{{{{{{{{{#=;&&;@..$+;+",
".+;+@..$+&&&+@$.{{{{{)>'){{{{{{,,,,,,^{{{{{{{{{{{{{-+&&&+$..@+;+",
".@;;=...=;&&;=$.{{{{{{{{{{{{{{^,,,,,,{{{{{{{{{{{{{{=;&&;@$..=;;@",
".$+;+@..$+&&&+=${{{{-{{{{{{{{),,,,,,>{{{{{{{{{{{{{{+&&&+@..$+;+$",
"..=;+=...=;&&;=@{{{{.$~~>>){{{),,,,,{{{{{{{{{{{{{{%;&&+=...=;;=.",
"$.$;;+$..$+;&&;={{{{..$@@+>{{{{%;&;^{{{{{{{#****-{+&&&+$..$+;+@.",
"@..=;;=...@;&&&;{{{{*..$$@={{{{{>;+~{{{{{{*....@=;&&&+@...=;;=..",
"=$.$+;+@..$@;&&&{{{{*....$$#{{{{-==-{{{{{*...$$=+&&&;=$..@+;+@.$",
"+@..=;;=$..$=;&&{{{{#......#{{{{{$$!{{{{{...$@=;&&&'-$..$+;;@..@",
"++$.$+;;=...$=;&{{{{{$$....{{{{{{*.*{{{{{..$=+;&&^){{*..=;;+$.$=",
"=+@..@+;+@...@=;^'%))~@$..#{{{{{{*..{{{{{!@=+;&&&){{{*.@+;+$..=+",
"$++@..=;;+@...$=;&&&&;+=@-{{{{{{{...#{{{{)+;&&&&;#{{{*@+;;=..@++",
".@+=$.$=;;+@..*#~+&&&&&;%{{{{{{{{$$$@{{{{{%^&&;+){{{{@+;;=$.$=+@",
"..=+=..$=;;+@.*{{{{)%%){{{{{{{{{)=+++>{{{{{{%)){{{{{{+;;=$..=+=.",
"@..++@..$+;;+@*{{{{{{{{{{{{{{{{{;;;;;&;{{{{{{{{{#{{{);;=$..=+=..",
"=@.$++@..$=;&+~{{{{{{{{{{{{{{{{'&&,&&&&&>){{{{#.#{{{>;+$..@++$.$",
"@=$.$++@..$=;;>{{{{{{{{{{{{{{{>&&&&&&;++=@$....#{{{{;=$..@++$.$=",
".@=$.$++@...=+>{{{{{{{{{{{{{{~+++=+==-)!!****#{{{{{>@$..@++@.$=@",
"$.@=..@++=...@~{{{{{{{{{{{#*$$$$$$$$.#{{{{{{{{{{{{~@...=++$..==.",
"@..==..$++=$..$-)))))-#!*............#{{{{{{{{{{{-$..$=++$..==..",
".=..==..$++=@...@=+;;;++=@$$$.......$#{{{{{{{{{{!...$++=$.$==..@",
"$.@..==$..=++=$...@=+;;;;;+++=======+){{{{{{{)!...$=++=..$=@..=.",
".$.=..@=$..$++=@$...$==+;;;;;;;;;;;;;;'>>>~@$....@++=@..$=@.$@.$"};
