/* XPM */
static char * cycle_xpm[] = {
"32 32 34 1",
" 	c None",
".	c #000000",
"+	c #FFFFFF",
"@	c #F8F8F8",
"#	c #C0C0C0",
"$	c #EAEAEA",
"%	c #CECECE",
"&	c #DBDBDB",
"*	c #D5D5D5",
"=	c #F02A2A",
"-	c #ECD0D0",
";	c #FF8E8E",
">	c #FF0000",
",	c #F19C9C",
"'	c #FFE3E3",
")	c #FF3939",
"!	c #EA4040",
"~	c #C6C6C6",
"{	c #E38E8E",
"]	c #CE9595",
"^	c #FFAAAA",
"/	c #FF5555",
"(	c #FF1C1C",
"_	c #FFC6C6",
":	c #DEA5A5",
"<	c #EC5E5E",
"[	c #E77676",
"}	c #F52F2F",
"|	c #FF7171",
"1	c #FA1717",
"2	c #F14747",
"3	c #151515",
"4	c #808080",
"5	c #2A2A2A",
"     ......................     ",
"     .++++++++++++++++++++.     ",
"     .@##################@.     ",
"     .$#$$$%$$$$%$$$#&$$#$.     ",
"     .$#+++*++++*+++#$++#$.     ",
"     .$#+++*++++*+++#$++#$.     ",
"     .$#+++*++++*+++=-++#$.     ",
"     .$#+++*++++*++;>,++#$.     ",
"     .$#+++*++++*+')!$++#$.     ",
"     .$#***~****~*{>]%**#$.     ",
"     .$#+++*++++*+>)#$++#$.     ",
"     .$#+++*++++*;>^#$++#$.     ",
"     .$#+++*++++*/(_#$++#$.     ",
"     .$#+++*++++:(/+#$++#$.     ",
"     .$#+++*++++<>;+#$++#$.     ",
"     .$#+;;*++++>>++#$++#$.     ",
"     .$#*[>>:**:>}**#%**#$.     ",
"     .$#++|>(/+/>^++#$++#$.     ",
"     .$#+++[>>>>1_++#$++#$.     ",
"     .$#+++*|>>>2+++#$++#$.     ",
"     .$#+++*+;>>[+++#$++#$.     ",
"     .$#+++*++^^*+++#$++#$.     ",
"     .$#***~****~***#%**#$.     ",
"     .$#+++*++++*+++#$++#$.     ",
"     .$#+++*++++*+++#$++#$.     ",
"     .$#+++*++++*+++33..33.     ",
"     .$#+++*++++*+++.4###.      ",
"     .$#+++*++++*+++.4##..      ",
"     .$#$$$%$$$$%$$$54#..       ",
"     .@#############54..        ",
"     .++++++++++++++...         ",
"     .................          "};
