<?xml version="1.0" encoding="UTF-8" standalone="no"?>
<!-- Created with Inkscape (http://www.inkscape.org/) -->
<svg id="svg7324" xmlns:rdf="http://www.w3.org/1999/02/22-rdf-syntax-ns#" xmlns="http://www.w3.org/2000/svg" height="48px" width="48px" xmlns:cc="http://creativecommons.org/ns#" xmlns:xlink="http://www.w3.org/1999/xlink" xmlns:dc="http://purl.org/dc/elements/1.1/">
 <defs id="defs7326">
  <linearGradient id="linearGradient13128" y2="24.55" gradientUnits="userSpaceOnUse" x2="39.48" gradientTransform="translate(.27022 .37749)" y1="26.509" x1="43.223">
   <stop id="stop13124" stop-color="#fff" offset="0"/>
   <stop id="stop13126" stop-color="#fff" stop-opacity="0" offset="1"/>
  </linearGradient>
  <linearGradient id="linearGradient13136" y2="25.092" gradientUnits="userSpaceOnUse" x2="39.727" gradientTransform="translate(7.0596046e-6,-6e-6)" y1="27.865" x1="43.774">
   <stop id="stop13132" stop-color="#616161" offset="0"/>
   <stop id="stop13134" stop-opacity="0" offset="1"/>
  </linearGradient>
  <linearGradient id="linearGradient8133" y2="28.502" gradientUnits="userSpaceOnUse" x2="141.46" gradientTransform="matrix(1.0046 0 0 1 -100.41 -.000006)" y1="24.998" x1="141.08">
   <stop id="stop8129" stop-color="#e5e5e5" offset="0"/>
   <stop id="stop8131" stop-color="#767676" offset="1"/>
  </linearGradient>
  <linearGradient id="linearGradient8143" y2="26.851" gradientUnits="userSpaceOnUse" x2="144.29" gradientTransform="matrix(1.0046 0 0 1 -100.41 -.000006)" y1="26.125" x1="142.9">
   <stop id="stop8139" stop-color="#efefef" offset="0"/>
   <stop id="stop8141" stop-color="#d7d7d7" offset="1"/>
  </linearGradient>
  <radialGradient id="radialGradient9352" gradientUnits="userSpaceOnUse" cy="58" cx="326.02" gradientTransform="matrix(-1.4891 6.5431e-7 .062927 -1.0611 793.03 193.52)" r="12.5">
   <stop id="stop4790-8" stop-color="#fff" offset="0"/>
   <stop id="stop4792-6" stop-color="#fff" stop-opacity="0" offset="1"/>
  </radialGradient>
  <radialGradient id="radialGradient9350" gradientUnits="userSpaceOnUse" cy="58" cx="327.5" gradientTransform="matrix(3.6536 3.5089e-8 0 .86875 -871.68 81.613)" r="12.5">
   <stop id="stop4790" stop-color="#fff" offset="0"/>
   <stop id="stop4792" stop-color="#fff" stop-opacity="0" offset="1"/>
  </radialGradient>
  <linearGradient id="linearGradient9348" y2="202.5" gradientUnits="userSpaceOnUse" x2="178" gradientTransform="matrix(0.125 0 0 .11290 300.5 123.87)" y1="44.5" x1="88">
   <stop id="stop5689" stop-color="#fff" offset="0"/>
   <stop id="stop5691" stop-color="#fff" stop-opacity="0" offset="1"/>
  </linearGradient>
  <radialGradient id="radialGradient9346" gradientUnits="userSpaceOnUse" cy="37.922" cx="24.006" gradientTransform="matrix(1.7493 0 0 .71119 277.01 120.29)" r="19">
   <stop id="stop2707" stop-color="#729fcf" offset="0"/>
   <stop id="stop2709" stop-color="#204a87" offset="1"/>
  </radialGradient>
  <radialGradient id="radialGradient9344" gradientUnits="userSpaceOnUse" cy="75.284" cx="314.37" gradientTransform="matrix(-2.0839 -.71691 .14440 -.42161 965.52 393.22)" r="22">
   <stop id="stop4648" stop-color="#fff" offset="0"/>
   <stop id="stop4650" stop-color="#fff" stop-opacity=".1" offset="1"/>
  </radialGradient>
  <linearGradient id="linearGradient9342" y2="54.018" gradientUnits="userSpaceOnUse" x2="293" gradientTransform="matrix(.68889 0 0 .70042 98.556 90.315)" y1="97" x1="333.25">
   <stop id="stop5540" stop-color="#555753" offset="0"/>
   <stop id="stop5542" stop-color="#babdb6" offset="1"/>
  </linearGradient>
  <radialGradient id="radialGradient9340" gradientUnits="userSpaceOnUse" cy="61.655" cx="314.31" gradientTransform="matrix(.77593 2.9443 -.74027 .20167 114.42 -805.6)" r="23">
   <stop id="stop4656" stop-color="#eeeeec" offset="0"/>
   <stop id="stop4658" stop-color="#babdb6" offset="1"/>
  </radialGradient>
  <linearGradient id="linearGradient9338" y2="93.5" gradientUnits="userSpaceOnUse" x2="328.25" gradientTransform="matrix(.67014 0 0 .95650 104.59 65.046)" y1="93.5" x1="311.62">
   <stop id="stop2717" stop-color="#fff" offset="0"/>
   <stop id="stop2719" stop-color="#d3d7cf" offset=".16168"/>
   <stop id="stop2721" stop-color="#d3d7cf" offset=".85552"/>
   <stop id="stop2723" stop-color="#fff" offset="1"/>
  </linearGradient>
  <radialGradient id="radialGradient9336" gradientUnits="userSpaceOnUse" cy="91.506" cx="320.03" gradientTransform="matrix(1.2735 1.119e-8 0 .15787 -88.512 138.06)" r="8.4375">
   <stop id="stop4715" stop-color="#fff" offset="0"/>
   <stop id="stop4717" stop-color="#fff" stop-opacity="0" offset="1"/>
  </radialGradient>
  <linearGradient id="linearGradient9334" y2="93.876" gradientUnits="userSpaceOnUse" x2="325.81" gradientTransform="matrix(.6875 0 0 .70415 99.031 88.958)" y1="86.909" x1="325.81">
   <stop id="stop2714" stop-color="#555753" offset="0"/>
   <stop id="stop2716" stop-color="#babdb6" offset=".52028"/>
   <stop id="stop2718" stop-color="#888a85" offset=".81726"/>
   <stop id="stop2720" stop-color="#555753" offset="1"/>
  </linearGradient>
  <linearGradient id="linearGradient9332" y2="93.069" gradientUnits="userSpaceOnUse" x2="320.28" gradientTransform="matrix(.6875 0 0 .70415 99.031 88.958)" y1="86.743" x1="320.28">
   <stop id="stop4695" stop-color="#555753" offset="0"/>
   <stop id="stop4701" stop-color="#babdb6" offset=".30146"/>
   <stop id="stop3408" stop-color="#eeeeec" offset=".48028"/>
   <stop id="stop4699" stop-color="#fff" offset=".64304"/>
   <stop id="stop4697" stop-color="#555753" offset="1"/>
  </linearGradient>
  <filter id="filter4768" height="2.1354" width="1.2278" y="-.56769" x="-.11389">
   <feGaussianBlur id="feGaussianBlur4770" stdDeviation="0.94614625"/>
  </filter>
  <linearGradient id="linearGradient9330" y2="88.849" gradientUnits="userSpaceOnUse" x2="327.92" y1="93.75" x1="327.92">
   <stop id="stop4774" offset="0"/>
   <stop id="stop4776" stop-opacity="0" offset="1"/>
  </linearGradient>
  <filter id="filter6655" height="2.3389" width="1.1219" y="-.66943" x="-.060940">
   <feGaussianBlur id="feGaussianBlur6657" stdDeviation="1.1680158"/>
  </filter>
  <linearGradient id="linearGradient7095" y2="33.344" gradientUnits="userSpaceOnUse" x2="44.018" gradientTransform="matrix(1 0 0 1.0582 .0000070596 -1.8585)" y1="42.278" x1="42.381">
   <stop id="stop4614" stop-color="#cecece" offset="0"/>
   <stop id="stop4616" stop-color="#fff" offset="1"/>
  </linearGradient>
  <linearGradient id="linearGradient13096" y2="32.121" gradientUnits="userSpaceOnUse" x2="44.09" gradientTransform="translate(7.0596046e-6,-6e-6)" y1="26.521" x1="40.321">
   <stop id="stop13092" stop-color="#7b7b7b" offset="0"/>
   <stop id="stop13094" stop-color="#505050" offset="1"/>
  </linearGradient>
  <linearGradient id="linearGradient8121" y2="29.286" gradientUnits="userSpaceOnUse" x2="146.8" gradientTransform="matrix(1.0217 0 0 1 -102.97 -.000006)" y1="29.455" x1="138.24">
   <stop id="stop8117" stop-color="#e3e3e3" offset="0"/>
   <stop id="stop8123" stop-color="#d4d4d4" offset=".5"/>
   <stop id="stop8125" stop-color="#848484" offset=".5"/>
   <stop id="stop8119" stop-color="#c1c1c1" offset="1"/>
  </linearGradient>
  <linearGradient id="linearGradient8106" y2="25.485" gradientUnits="userSpaceOnUse" x2="142.38" gradientTransform="matrix(1.1354 .38270 -.38149 1.1318 -110.42 -58.018)" y1="25.485" x1="135.06">
   <stop id="stop8102" stop-color="#1c427b" offset="0"/>
   <stop id="stop8104" stop-color="#1c427b" stop-opacity=".97931" offset="1"/>
  </linearGradient>
  <linearGradient id="linearGradient8096" y2="26.142" gradientUnits="userSpaceOnUse" x2="137.04" gradientTransform="matrix(1.1354 .38270 -.38149 1.1318 -110.42 -58.018)" y1="26.582" x1="139.81">
   <stop id="stop8092" stop-color="#214e90" offset="0"/>
   <stop id="stop8094" stop-color="#0d1f3a" offset="1"/>
  </linearGradient>
  <radialGradient id="radialGradient3168" xlink:href="#linearGradient8918" gradientUnits="userSpaceOnUse" cy="17.258" cx="25.969" gradientTransform="matrix(.050421 1.8169 -1.2229 .033892 50.07 -36.844)" r="9.8222"/>
  <radialGradient id="radialGradient3198" xlink:href="#linearGradient8918" gradientUnits="userSpaceOnUse" cy="17.574" cx="24.479" gradientTransform="matrix(.18150 6.5402 -.48814 .013532 34.419 -149.32)" r="2.972"/>
  <radialGradient id="radialGradient3183" fx="24.652" xlink:href="#linearGradient8918" gradientUnits="userSpaceOnUse" cy="18.944" cx="24.653" gradientTransform="matrix(.055773 2.0097 -1.4345 .039779 54.923 -38.966)" r="8.6174"/>
  <linearGradient id="linearGradient8918">
   <stop id="stop8920" stop-color="#abe14b" offset="0"/>
   <stop id="stop8922" stop-color="#8cb029" offset="1"/>
  </linearGradient>
  <radialGradient id="radialGradient3218" xlink:href="#linearGradient8918" gradientUnits="userSpaceOnUse" cy="14.542" cx="25.135" gradientTransform="matrix(.13046 4.7009 -.65983 .018278 36.345 -107.33)" r="4.1347"/>
  <linearGradient id="linearGradient7065" y2="52.398" gradientUnits="userSpaceOnUse" x2="15.877" y1="14.684" x1="15.865">
   <stop id="stop5156" stop-color="#bcd1f0" offset="0"/>
   <stop id="stop5158" stop-color="#89aee3" stop-opacity=".40698" offset="1"/>
  </linearGradient>
  <linearGradient id="linearGradient7063" y2="48.41" gradientUnits="userSpaceOnUse" x2="17.795" y1="15.976" x1="11.167">
   <stop id="stop4175" stop-color="#4b81c7" offset="0"/>
   <stop id="stop4177" stop-color="#3364a3" offset="1"/>
  </linearGradient>
  <filter id="filter14190">
   <feGaussianBlur id="feGaussianBlur14192" stdDeviation="0.78891781"/>
  </filter>
  <radialGradient id="radialGradient7061" gradientUnits="userSpaceOnUse" cy="31.564" cx="16.537" r="16.336">
   <stop id="stop13103" offset="0"/>
   <stop id="stop13105" stop-opacity="0" offset="1"/>
  </radialGradient>
 </defs>
 <metadata id="metadata7329">
  <rdf:RDF>
   <cc:Work rdf:about="">
    <dc:format>image/svg+xml</dc:format>
    <dc:type rdf:resource="http://purl.org/dc/dcmitype/StillImage"/>
   </cc:Work>
  </rdf:RDF>
 </metadata>
 <g id="layer1">
  <path id="path7005" opacity=".61967" d="m32.872 31.564a16.336 16.336 0 1 1 -32.671 0 16.336 16.336 0 1 1 32.671 0z" transform="matrix(.97946 0 0 .35297 13.303 20.613)" filter="url(#filter14190)" fill="url(#radialGradient7061)"/>
  <g id="g7007" transform="translate(.0000070596 40)">
   <path id="path7009" d="m32.872 31.564a16.336 16.336 0 1 1 -32.671 0 16.336 16.336 0 1 1 32.671 0z" transform="matrix(.97946 0 0 .97946 13.303 -52.415)" stroke="#1e4886" stroke-linecap="round" stroke-width="1.021" fill="url(#linearGradient7063)"/>
   <path id="path7011" d="m32.872 31.564a16.336 16.336 0 1 1 -32.671 0 16.336 16.336 0 1 1 32.671 0z" transform="matrix(.91824 0 0 .91824 14.315 -50.483)" stroke="url(#linearGradient7065)" stroke-linecap="round" stroke-width="1.089" fill="none"/>
   <g id="g7013" transform="translate(0,-40)">
    <path id="path7015" d="m30.553 6.915l-0.06 0.403 0.417 0.2689 0.712-0.4704-0.356-0.4034-0.476 0.2693-0.237-0.0674" fill="#93d442"/>
    <path id="path7017" d="m31.438 5.0683c-0.674-0.2085-1.308-0.6829-2.047-0.5586-0.46 0.062-0.927 0.0918-1.382 0.1957-0.609 0.1198-1.196 0.3266-1.797 0.475-0.255 0.0758-0.714 0.2448-0.564 0.5915 0.255 0.2915 0.674 0.3862 0.962 0.6476 0.281 0.1904 0.388 0.6874 0.055 0.8753-0.264 0.2297-0.321 0.6457-0.108 0.9282 0.202 0.2186 0.178 0.6123 0.502 0.7328 0.307 0.13 0.56-0.1885 0.648-0.4473 0.237-0.4923 0.732-0.8566 1.281-0.8969 0.564-0.2748 1.208-0.388 1.715-0.7755 0.313-0.5591 0.478-1.1837 0.735-1.7679" fill="url(#radialGradient3218)"/>
    <path id="path7019" d="m31.733 9.8063l-0.238-0.6056-0.417 0.1348 0.12 0.7385 0.535-0.2677" fill="#93d442"/>
    <path id="path7021" d="m32.278 9.6707c-0.04 0.2692-0.079 0.5383-0.119 0.8073 0.218-0.045 0.436-0.09 0.654-0.135 0.158-0.156 0.316-0.313 0.475-0.4696-0.139-0.1345-0.278-0.2691-0.416-0.4037-0.138-0.3672-0.302-0.7237-0.475-1.0756h-0.356v0.403c0.079 0.0896 0.158 0.1793 0.237 0.2689v0.6048" fill="#93d442"/>
    <path id="path7023" d="m16.796 16.53c0.92-0.679 2.027-1.076 3.141-1.365 0.992-0.308 0.942-1.813 2.012-1.955 0.179-0.87 1.86-0.517 1.694-1.451-0.389-0.05-1.683 0.059-0.65-0.328 0.657-0.016 2.654-0.401 1.368-1.151-0.109-0.4477-0.198-1.2307-0.926-0.7387 0.294-0.9696-1.207-0.9473-1.129 0.0076-0.078 0.6171-0.881 1.0891-1.063 1.3771 0.027-0.867-2.196-1.2061-0.621-1.9151 0.801-0.1052 2.03-1.7709 0.63-1.742-0.671 0.7627-1.779 1.2892-2.426 2.2609-1.962 2.2672-3.188 5.1422-3.531 8.1162" fill="url(#radialGradient3183)"/>
    <path id="path7025" d="m22.427 6.9315c-0.061 0.276-0.512 0.8271 0.021 0.7438 0.481 0.0842 0.374-0.5847 0.704-0.7829 0.283-0.1724 0.593-0.5396 0.957-0.339 0.42 0.1451 0.755 0.4536 1.129 0.6831 0.314 0.4153 0.63-0.0205 0.876-0.2579-0.077-0.2368-0.58-0.1661-0.689-0.4677-0.037-0.526-0.584-0.5166-0.981-0.546-0.317 0.1296-0.382-0.2901-0.473-0.3674-0.356-0.0034-0.606 0.2821-0.729 0.5418-0.11-0.173-0.319-0.798-0.387-0.2514 0.08 0.4008 0.035 0.8125-0.383 1.0058l-0.045 0.0378z" fill="url(#radialGradient3198)"/>
    <path id="path7027" d="m43.842 16.46c-0.487 0.997-2.838-1.775-2.241-0.076 0.722 0.815 2.1 0.518 0.964 1.962-0.937 1.025-2.163 1.557-2.267-0.235-0.204-1.142-2.167-3.103-1.062-0.886 0.439 1.402 1.167 2.695 2.627 2.599-0.055 1.762-2.391 3.066-1.614 4.965 0.602 1.403-1.932 1.735-1.067 2.84-0.386 1.155-2.38 3.361-3.173 1.908-0.939-2.04-0.493-4.161-0.923-6.283-0.165-1.407-0.701-2.803-2.503-2.076-1.692 0.88-2.925-2.001-2.444-3.469 0.411-2.02 2.432-4.281 4.652-3.437 1.006 1.213 2.57 0.782 3.959 0.577 0.405-0.809-1.568-1.12-1.891-1.589-0.076 1.996-1.837-2.122-1.052-0.248-0.485 1.698-0.693-1.53-2.003-0.342-0.7 0.515-1.964 2.419-2.263 0.544 0.178-1.219 1.656-0.652 0.942-1.827 1.286-0.111 1.54-2.3641 2.738-1.07 0.41-0.293 2.29-1.5422 1.009-1.5501 0.322-2.0232-0.966 0.1644-1.025 0.9522-0.667-0.6438-2.184 0.0011-1.157-1.4232 0.964-1.3004 2.834-1.9047 4.199-0.7223-1.452-0.0167-0.009 1.3423 0.563 0.3337 1.761 0.8198 2.768 2.9517 3.788 4.5657 0.612 1.256 1.036 2.605 1.244 3.987z" fill="url(#radialGradient3168)"/>
   </g>
  </g>
  <path id="path7111" d="m41.152 26.166c-1.781 1.51-4.726 2.338-6.409 2.99l-0.786-5.093c2.999-0.754 4.724-1.506 6.937-2.858l0.258 4.961z" fill-rule="evenodd" stroke="url(#linearGradient8106)" stroke-width="1px" fill="url(#linearGradient8096)"/>
  <path id="path8098" d="m40.675 26.108l-4.473-2.139c1.503-0.534 2.996-1.155 4.263-1.933l0.21 4.072z" fill-rule="evenodd" fill="#0d1f3a"/>
  <path id="path8110" d="m46.485 27.456l-6.085-2.739-3.918 1.319 0.053 2.619 6.144 3.793 3.814-1.632-0.008-3.36z" fill-rule="evenodd" stroke="url(#linearGradient13096)" stroke-width="1px" fill="url(#linearGradient8121)"/>
  <path id="path8135" d="m44.41 30.005c2.478 3.108 1.547 9.437-2.017 11.584-4.43 2.669-11.427-2.741-20.379-0.218" stroke="#7b7b7b" stroke-width="3.5" fill="none"/>
  <path id="path7035" d="m44.579 30.089c2.148 2.679 1.378 9.353-2.186 11.5-4.43 2.669-11.427-2.741-20.379-0.218" stroke="url(#linearGradient7095)" stroke-width="1.3" fill="none"/>
  <g id="g10554" style="enable-background:new" transform="translate(-301,-111)">
   <rect id="rect2678" opacity=".060241" style="enable-background:accumulate" transform="matrix(.66508 0 0 .65672 106.21 94.631)" rx="1.5812" ry="1.4395" height="4.1875" filter="url(#filter6655)" width="46" y="90.812" x="297" fill="#2e3436"/>
   <path id="path2680" opacity=".52610" d="m316.06 91h7.77l5.39 4h-18.6l5.44-4z" transform="matrix(.89440 0 0 .85938 32.831 74.003)" filter="url(#filter4768)" fill="url(#linearGradient9330)"/>
   <path id="path2682" stroke-linejoin="round" style="enable-background:new" d="m315.53 147.05v4.93c-0.01 1.27-2.26 2.11-2.26 2.11-0.51 0.06-0.77 0.32-0.77 0.71s0.35 0.7 0.77 0.7h11.56c0.43 0 0.78-0.31 0.78-0.7s-0.26-0.65-0.78-0.71c0 0-2.3-0.84-2.32-2.11v-4.93h-6.98v0z" stroke-dashoffset="0.5" stroke="url(#linearGradient9334)" stroke-linecap="round" fill="url(#linearGradient9332)"/>
   <path id="path2692" stroke-linejoin="round" style="enable-background:new" d="m316.54 147.78v4.08c0 0.86-0.72 2.72-2.94 2.71h10.91c-2.25 0-3.01-1.85-3.01-2.71v-4.08h-4.96z" stroke-dashoffset="0.5" stroke="url(#radialGradient9336)" stroke-linecap="round" fill="none"/>
   <rect id="rect2694" style="enable-background:new" rx=".47825" ry=".47825" height=".95650" width="12.062" y="154" x="313" fill="url(#linearGradient9338)"/>
   <g id="g2835" stroke-linejoin="round" stroke-dashoffset="0.5" stroke-linecap="round">
    <rect id="rect2686" rx=".73194" ry=".74419" height="21" width="31" stroke="url(#linearGradient9342)" y="128.5" x="303.5" fill="url(#radialGradient9340)"/>
    <rect id="rect2690" style="enable-background:new" rx="0" ry="0" height="18.938" width="29" stroke="url(#radialGradient9344)" y="129.5" x="304.5" fill="none"/>
    <rect id="rect2698" opacity=".15" style="enable-background:new" rx="0" ry="0" height="19" width="29" stroke="#fff" y="129.5" x="304.5" fill="none"/>
   </g>
   <path id="path2700" stroke-linejoin="round" d="m330.51 149.5l-0.01-0.33c0-0.37 0.43-0.67 0.97-0.67 0.53 0 0.96 0.3 0.96 0.67l0.02 0.33" stroke-dashoffset="0.5" stroke="#555753" fill="#888a85"/>
   <rect id="rect2688" style="enable-background:new" fill-rule="evenodd" height="15" width="27" stroke="#204a87" y="131.5" x="305.5" stroke-width="1px" fill="url(#radialGradient9346)"/>
   <rect id="rect3470" opacity=".15" style="enable-background:new" fill-rule="evenodd" height="14" width="26" y="132" x="306" fill="url(#linearGradient9348)"/>
   <path id="path2696" opacity=".24498" d="m325.06 132h6.94v13.71h-13.77l6.83-13.71z" fill="url(#radialGradient9350)"/>
   <path id="path10735" opacity=".24498" style="enable-background:new" d="m317.26 131.98h4.9l-5.3 12.64-2.4-0.14 2.8-12.5z" fill="url(#radialGradient9352)"/>
  </g>
  <path id="path8108" d="m45.883 27.239l-5.221-2.767-3.137 1.309 5.142 3.01 3.216-1.552z" fill-rule="evenodd" stroke="url(#linearGradient8133)" stroke-width="1px" fill="url(#linearGradient8143)"/>
  <rect id="rect13100" transform="matrix(.93769 -.34747 .89415 .44776 0 0)" rx=".60050" ry="0" height="2.4094" width="0.671" y="50.195" x="-6.6016" fill="#f57900"/>
  <path id="path13098" d="m40.362 25.092l-1.339 0.446 3.91 2.442 1.23-0.605-3.801-2.283z" fill-rule="evenodd" fill="url(#linearGradient13136)"/>
  <rect id="rect13120" ry="0" rx="0" transform="matrix(.93769 -.34747 .89415 .44776 0 0)" height="2.3873" width=".68860" y="50.179" x="-7.3596" fill="#73d216"/>
  <path id="path9151" d="m40.127 24.737l-1.745 0.58 5.038 2.053 1.577-0.727-4.87-1.906z" fill-rule="evenodd" fill="url(#linearGradient13128)"/>
 </g>
</svg>
