<?xml version="1.0" encoding="UTF-8" standalone="no"?>
<!-- Created with Inkscape (http://www.inkscape.org/) -->
<svg id="svg7610" xmlns:rdf="http://www.w3.org/1999/02/22-rdf-syntax-ns#" xmlns="http://www.w3.org/2000/svg" height="48px" width="48px" xmlns:cc="http://creativecommons.org/ns#" xmlns:xlink="http://www.w3.org/1999/xlink" xmlns:dc="http://purl.org/dc/elements/1.1/">
 <defs id="defs7612">
  <linearGradient id="linearGradient7872" y2="134.25" gradientUnits="userSpaceOnUse" x2="-158.75" gradientTransform="matrix(.18921 -.18923 .18921 .18923 49.739 -37.732)" y1="115.94" x1="-158.75">
   <stop id="stop4101-1-8" stop-color="#ddd" offset="0"/>
   <stop id="stop4107-2-2" stop-color="#fff" offset=".34468"/>
   <stop id="stop4109-5-7" stop-color="#737373" offset=".72695"/>
   <stop id="stop4103-9-2" stop-color="#bbb" offset="1"/>
  </linearGradient>
  <radialGradient id="radialGradient7870" gradientUnits="userSpaceOnUse" cy="128" cx="-138.84" gradientTransform="matrix(.32039 -.32039 .32241 .32241 50.518 -74.158)" r="9.1267">
   <stop id="stop4121-0-5" stop-color="#f9a9a9" offset="0"/>
   <stop id="stop4119-1-6" stop-color="#ab5f5f" offset="1"/>
  </radialGradient>
  <linearGradient id="linearGradient7868" y2="32.714" gradientUnits="userSpaceOnUse" x2="25.485" y1="34.39" x1="26.379">
   <stop id="stop6439" stop-color="#e9b96e" offset="0"/>
   <stop id="stop6441" stop-color="#fff" offset="1"/>
  </linearGradient>
  <linearGradient id="linearGradient7866" y2="22.119" gradientUnits="userSpaceOnUse" x2="22.81" gradientTransform="translate(6.3922 12.185)" y1="21.481" x1="23.448">
   <stop id="stop2303" stop-color="#ce5c00" offset="0"/>
   <stop id="stop2305" stop-color="#ce5c00" offset="1"/>
  </linearGradient>
  <linearGradient id="linearGradient7864" y2="14.691" gradientUnits="userSpaceOnUse" x2="30.432" gradientTransform="translate(6.3922 12.185)" y1="12.338" x1="28.079">
   <stop id="stop6447" stop-color="#fcaf3e" offset="0"/>
   <stop id="stop6449" stop-color="#ce5c00" offset="1"/>
  </linearGradient>
  <linearGradient id="linearGradient7862" y2="18.392" gradientUnits="userSpaceOnUse" x2="32.938" gradientTransform="matrix(1 0 0 .41501 6.5485 26.767)" y1="18.538" x1="18.188">
   <stop id="stop1815" offset="0"/>
   <stop id="stop1817" stop-opacity="0" offset="1"/>
  </linearGradient>
  <radialGradient id="radialGradient7860" gradientUnits="userSpaceOnUse" cy="33.188" cx="37.375" gradientTransform="matrix(1 0 0 .22650 0 25.671)" r="14.625">
   <stop id="stop4335" offset="0"/>
   <stop id="stop4337" stop-opacity="0" offset="1"/>
  </radialGradient>
  <linearGradient id="linearGradient7874" y2="38.438" gradientUnits="userSpaceOnUse" x2="26.906" gradientTransform="matrix(.88235 0 0 1 1.6471 0)" y1="39.219" x1="22.156">
   <stop id="stop3526" offset="0"/>
   <stop id="stop3528" stop-opacity="0" offset="1"/>
  </linearGradient>
  <linearGradient id="linearGradient3842" y2="103.93" gradientUnits="userSpaceOnUse" x2="13.958" gradientTransform="translate(2.0005 -.0000589)" y1="18.5" x1="10.125">
   <stop id="stop3542" stop-color="#babdb6" offset="0"/>
   <stop id="stop3544" stop-color="#555753" offset="1"/>
  </linearGradient>
  <linearGradient id="linearGradient3640" y2="47.001" gradientUnits="userSpaceOnUse" x2="19.578" y1="40.999" x1="19.578">
   <stop id="stop3270" stop-opacity="0" offset="0"/>
   <stop id="stop3276" offset=".5"/>
   <stop id="stop3272" stop-opacity="0" offset="1"/>
  </linearGradient>
  <radialGradient id="radialGradient3638" xlink:href="#linearGradient3254" gradientUnits="userSpaceOnUse" cy="44" cx="2" gradientTransform="matrix(1.6842 0 0 1.0105 -9.3684 -88.463)" r="2.9688"/>
  <linearGradient id="linearGradient3254">
   <stop id="stop3256" offset="0"/>
   <stop id="stop3258" stop-opacity="0" offset="1"/>
  </linearGradient>
  <radialGradient id="radialGradient3636" xlink:href="#linearGradient3254" gradientUnits="userSpaceOnUse" cy="44" cx="2" gradientTransform="matrix(1.6842 0 0 1.0105 29.632 -.46316)" r="2.9688"/>
 </defs>
 <metadata id="metadata7615">
  <rdf:RDF>
   <cc:Work rdf:about="">
    <dc:format>image/svg+xml</dc:format>
    <dc:type rdf:resource="http://purl.org/dc/dcmitype/StillImage"/>
   </cc:Work>
  </rdf:RDF>
 </metadata>
 <g id="layer1">
  <g id="g3580" opacity=".15" transform="matrix(1.0756 0 0 .85269 1.1294 6.4818)">
   <rect id="rect3582" opacity="1" height="6" width="5" y="41" x="33" fill="url(#radialGradient3636)"/>
   <rect id="rect3584" opacity="1" transform="scale(-1)" height="6" width="5" y="-47" x="-6" fill="url(#radialGradient3638)"/>
   <rect id="rect3586" opacity="1" height="6" width="27" y="41" x="6" fill="url(#linearGradient3640)"/>
  </g>
  <rect id="rect3588" stroke-linejoin="round" rx="2.603" ry="2.5191" height="43" width="31" stroke="url(#linearGradient3842)" stroke-linecap="round" y="1.4999" x="6.5005" fill="#eeeeec"/>
  <path id="path3590" opacity="0.07" d="m8 11c-1.0826 0-1.9688 0.886-1.9688 1.969v4.062c0 1.083 0.8862 1.969 1.9688 1.969h23.031c1.083 0 1.969-0.886 1.969-1.969v-4.062c0-1.083-0.886-1.969-1.969-1.969h-23.031z" transform="translate(2.0005 .99994)"/>
  <rect id="rect3592" stroke-linejoin="round" rx="1.5555" ry="1.4848" height="7" width="27" stroke="#3465a4" stroke-linecap="round" y="11.5" x="8.5005" fill="#729fcf"/>
  <rect id="rect3594" rx="1.5053" ry="1.4549" height="40.9" width="28.892" stroke="#fff" stroke-linecap="round" y="2.5499" x="7.5582" stroke-width="1.1" fill="none"/>
  <rect id="rect3596" opacity=".4" rx=".76736" ry=".8125" height="2" width="17" y="38" x="16"/>
  <rect id="rect3616" opacity=".4" rx=".59028" ry=".625" height="2" width="17" y="5.9999" x="16"/>
  <rect id="rect3618" opacity=".4" rx=".53125" ry=".5625" height="2" width="17" y="14" x="16"/>
  <rect id="rect3620" opacity=".4" rx=".75" ry=".75" height="2" width="17" y="22" x="16"/>
  <path id="path3622" opacity=".4" stroke-linejoin="round" d="m8 12.5c-0.2855 0-0.4688 0.183-0.4688 0.469v4.062c0 0.286 0.1833 0.469 0.4688 0.469h23.031c0.286 0 0.469-0.183 0.469-0.469v-4.062c0-0.286-0.183-0.469-0.469-0.469h-23.031z" transform="matrix(1.0417 0 0 1 1.6863 -.0000589)" stroke="#fff" stroke-linecap="round" stroke-width=".97977" fill="none"/>
  <rect id="rect3626" opacity=".3" rx=".86179" ry=".86179" height="3" width="3" stroke="#2e3436" stroke-linecap="round" y="37.5" x="10.5" fill="#888a85"/>
  <rect id="rect3628" opacity=".3" rx=".86179" ry=".86179" height="3" width="3" stroke="#2e3436" stroke-linecap="round" y="21.5" x="10.5" fill="#888a85"/>
  <rect id="rect3630" opacity=".3" rx=".86179" ry=".86179" height="3" width="3" stroke="#2e3436" stroke-linecap="round" y="13.5" x="10.5" fill="#888a85"/>
  <rect id="rect3632" opacity=".3" rx=".86179" ry=".86179" height="3" width="3" stroke="#2e3436" stroke-linecap="round" y="5.4999" x="10.5" fill="#888a85"/>
  <g id="g3848" transform="translate(2.0005 -8.0001)">
   <rect id="rect3624" opacity=".3" rx=".86179" ry=".86179" height="3" width="3" stroke="#2e3436" stroke-linecap="round" y="37.5" x="8.5" fill="#888a85"/>
   <rect id="rect3634" opacity=".4" rx=".67708" ry=".8125" height="2" width="15" y="38" x="14" fill="url(#linearGradient7874)"/>
  </g>
  <g id="g10273" style="enable-background:new" transform="translate(-2 -5.0001)">
   <path id="path4331" opacity="0.07" d="m52 33.188a14.625 3.3125 0 1 1 -29.25 0 14.625 3.3125 0 1 1 29.25 0z" transform="matrix(.89744 0 0 .98113 1.3333 1.6887)" fill="url(#radialGradient7860)"/>
   <g id="g10286">
    <path id="path2334" opacity=".4" d="m41.08 28.466l-15 4.473-0.125 0.065-0.094 0.077-2.75 2.854 7.437-0.843 0.282-0.026 0.187-0.078 10.063-2.683v-3.839z" fill-rule="evenodd" fill="url(#linearGradient7862)"/>
    <g id="g10289">
     <g id="g10291">
      <path id="path2273" stroke-linejoin="round" d="m25.892 30.185l19-19c2.175 0.36 3.085 1.732 3.5 3.5l-19 19-4.616 0.704 1.116-4.204z" fill-rule="evenodd" stroke="url(#linearGradient7866)" fill="url(#linearGradient7864)"/>
      <path id="path2313" opacity=".28235" d="m26.792 30.685l18.498-18.398c1.09 0.178 1.517 0.988 2 2l-18.398 18.498-3.3 0.9 1.2-3z" stroke="#fff" fill="none"/>
     </g>
     <g id="g10295">
      <path id="path2298" d="m24.55 34.633l1.666-4.18s1.199 0.245 1.932 0.975 0.998 1.944 0.998 1.944l-4.596 1.261z" fill-rule="evenodd" fill="url(#linearGradient7868)"/>
      <path id="path5446" stroke-linejoin="round" d="m23 21.5l-5.5 1.5 2-5" transform="translate(6.3922 12.185)" stroke="#e9b96e" stroke-linecap="round" fill="none"/>
      <path id="path2283" d="m23.955 33.685l-0.907 2.25 2.344-0.657c0.002-0.032 0-0.061 0-0.093 0-0.803-0.645-1.46-1.437-1.5z" fill-rule="evenodd"/>
     </g>
    </g>
   </g>
   <path id="path4113-1" style="enable-background:new" d="m42.822 13.147c1.834-0.5 3.885 1.652 3.45 3.45l2.195-2.195c1.067-2.467-1.132-4.4099-3.495-3.495l-2.15 2.24z" stroke="#ef2929" fill="url(#radialGradient7870)"/>
   <path id="path4095-8" style="enable-background:new" d="m40.562 15.251c1.936-0.529 4.102 1.744 3.642 3.642l2.318-2.318c0.755-1.595-2.044-4.337-3.689-3.689l-2.271 2.365z" stroke="#888a85" fill="url(#linearGradient7872)"/>
  </g>
 </g>
</svg>
