<?xml version="1.0" encoding="UTF-8" standalone="no"?>
<!-- Created with Inkscape (http://www.inkscape.org/) -->

<svg
   xmlns:dc="http://purl.org/dc/elements/1.1/"
   xmlns:cc="http://creativecommons.org/ns#"
   xmlns:rdf="http://www.w3.org/1999/02/22-rdf-syntax-ns#"
   xmlns:svg="http://www.w3.org/2000/svg"
   xmlns="http://www.w3.org/2000/svg"
   xmlns:sodipodi="http://sodipodi.sourceforge.net/DTD/sodipodi-0.dtd"
   xmlns:inkscape="http://www.inkscape.org/namespaces/inkscape"
   id="svg2426"
   sodipodi:version="0.32"
   inkscape:version="0.46+devel"
   width="48"
   height="48"
   xml:space="preserve"
   sodipodi:docname="system-logo-sprite.svg"
   inkscape:output_extension="org.inkscape.output.svg.inkscape"
   version="1.0"><metadata
     id="metadata2432"><rdf:RDF><cc:Work
         rdf:about=""><dc:format>image/svg+xml</dc:format><dc:type
           rdf:resource="http://purl.org/dc/dcmitype/StillImage" /><dc:title></dc:title></cc:Work></rdf:RDF></metadata><defs
     id="defs2430"><inkscape:perspective
       sodipodi:type="inkscape:persp3d"
       inkscape:vp_x="0 : 0.5 : 1"
       inkscape:vp_y="0 : 1000 : 0"
       inkscape:vp_z="1 : 0.5 : 1"
       inkscape:persp3d-origin="0.5 : 0.33333333 : 1"
       id="perspective2434" /><clipPath
       clipPathUnits="userSpaceOnUse"
       id="clipPath2444"><path
         d="M 0,1261.92 0,0 l 3930.52,0 0,1261.92 -3930.52,0 z"
         id="path2446" /></clipPath></defs><sodipodi:namedview
     pagecolor="#ffffff"
     bordercolor="#666666"
     borderopacity="1"
     objecttolerance="10"
     gridtolerance="10"
     guidetolerance="10"
     inkscape:pageopacity="0"
     inkscape:pageshadow="2"
     inkscape:window-width="1400"
     inkscape:window-height="840"
     id="namedview2428"
     showgrid="false"
     inkscape:zoom="1.9070707"
     inkscape:cx="109.75519"
     inkscape:cy="10.925242"
     inkscape:window-x="0"
     inkscape:window-y="33"
     inkscape:current-layer="g2436" /><g
     id="g2436"
     inkscape:groupmode="layer"
     inkscape:label="ink_ext_XXXXXX"
     transform="matrix(1.25,0,0,-1.25,0,252.32)"><g
       id="g2521"
       transform="matrix(0.22268615,0,0,0.22822366,4.8000001,168.256)"><path
         d="m 116.069,28.8008 c -2.432,0.5578 -5.011,0.9101 -7.621,0.9101 -4.463,0 -8.5242,-0.7722 -11.5187,-2.0214 -0.3301,-0.1629 -0.5648,-0.5086 -0.5648,-0.9004 0,-0.1446 0.0359,-0.2891 0.0902,-0.4121 0.3543,-1.025 -0.2274,-2.1372 -3.1266,-2.775 -4.2976,-0.945 -7.0113,-5.3801 -8.5629,-6.852 -1.8234,-1.732 -6.9726,-2.7941 -6.1976,-1.7621 0.6066,0.8051 2.923,3.323 4.3328,6.0422 1.2605,2.432 2.3832,3.123 3.9297,5.4437 0.4527,0.6785 2.2121,3.0692 2.7242,4.961 0.5742,1.8437 0.3805,4.1621 0.6012,5.114 0.3164,1.377 1.614,4.3606 1.7117,6.045 0.0566,0.9542 -3.9793,-1.3602 -5.8938,-1.3602 -1.9136,0 -3.7793,1.1484 -5.4898,1.2305 -2.1176,0.0976 -3.4777,-1.6348 -5.3938,-1.3313 -1.0925,0.175 -2.0144,1.1399 -3.9261,1.2102 C 68.4418,42.4426 65.116,40.8293 58.8695,41.0305 52.7258,41.2316 47.0496,48.7969 46.2754,50 c -0.9078,1.4102 -2.0164,1.4102 -3.2242,0.3 -1.2106,-1.1074 -2.7,-0.2363 -3.1242,0.5078 -0.8059,1.4082 -2.9606,5.5293 -6.2981,6.3945 -4.6152,1.1961 -6.9519,-2.5546 -6.6484,-5.5402 0.3078,-3.0301 2.266,-3.8797 3.1738,-5.4902 0.9059,-1.6121 1.3699,-2.6492 3.0769,-3.3621 1.209,-0.5071 1.6594,-1.2512 1.2997,-2.2453 -0.3161,-0.8641 -1.5747,-1.0614 -2.4016,-1.1024 -1.7582,-0.084 -2.991,0.3934 -3.8898,0.9668 -1.0457,0.6688 -1.8961,1.5938 -2.8083,3.1641 -1.0558,1.7343 -2.7187,2.4902 -4.6558,2.4902 -0.9231,0 -1.7871,-0.2434 -2.5547,-0.6387 -3.0355,-1.582 -6.6492,-2.5156 -10.54023,-2.5156 L 3.29297,42.925 C 11.707,17.9699 35.3031,0 63.098,0 c 22.2016,0 41.725,11.4648 52.971,28.8008"
         style="fill:#ffffff;fill-opacity:1;fill-rule:nonzero;stroke:none"
         id="path2448" /><path
         d="m 125.557,32.5871 0,1.0106 0.672,0 c 0.341,0 0.709,-0.0762 0.709,-0.4786 0,-0.4988 -0.37,-0.532 -0.791,-0.532 l -0.59,0 z m 0,-0.418 0.569,0 0.859,-1.4101 0.553,0 -0.93,1.4363 c 0.483,0.0578 0.847,0.3106 0.847,0.8906 0,0.6477 -0.381,0.927 -1.149,0.927 l -1.241,0 0,-3.2539 0.492,0 0,1.4101"
         style="fill:#100f0d;fill-opacity:1;fill-rule:nonzero;stroke:none"
         id="path2450" /><path
         d="m 126.141,35.0078 c -1.451,0 -2.626,-1.1758 -2.626,-2.6277 0,-1.4465 1.175,-2.6164 2.626,-2.6164 1.447,0 2.622,1.1699 2.622,2.6164 0,1.4519 -1.175,2.6277 -2.622,2.6277 z m 3.189,-2.6258 c 0,-1.757 -1.429,-3.1867 -3.189,-3.1867 -1.761,0 -3.191,1.4297 -3.191,3.1867 0,1.7606 1.43,3.1903 3.191,3.1903 1.76,0 3.189,-1.4297 3.189,-3.1903"
         style="fill:#100f0d;fill-opacity:1;fill-rule:nonzero;stroke:none"
         id="path2452" /><path
         d="m 116.069,28.7969 c -2.432,0.5617 -5.011,0.9101 -7.621,0.9101 -4.463,0 -8.5242,-0.7742 -11.5187,-2.0175 -0.3301,-0.1661 -0.5648,-0.5098 -0.5648,-0.9032 0,-0.1418 0.0359,-0.2902 0.0902,-0.4093 C 96.809,25.35 96.2273,24.2359 93.3281,23.6 89.0305,22.6551 86.3168,18.2219 84.7652,16.7469 82.9418,15.018 77.7926,13.952 78.5676,14.984 c 0.6066,0.807 2.923,3.325 4.3328,6.0449 1.2605,2.4293 2.3832,3.1223 3.9297,5.441 0.4527,0.6817 2.2121,3.0723 2.7242,4.9617 0.5742,1.8469 0.3805,4.1614 0.6012,5.1164 0.3164,1.3739 1.614,4.3594 1.7117,6.043 0.0566,0.952 -3.9793,-1.3574 -5.8938,-1.3574 -1.9136,0 -3.7793,1.1434 -5.4898,1.2266 -2.1176,0.1015 -3.4777,-1.6321 -5.3938,-1.3293 -1.0925,0.175 -2.0144,1.1367 -3.9261,1.2089 -2.7219,0.1008 -6.0477,-1.5117 -12.2942,-1.3105 -6.1437,0.1973 -11.8199,7.7629 -12.5941,8.966 -0.9078,1.4129 -2.0164,1.4129 -3.2242,0.3016 -1.2106,-1.1043 -2.7,-0.2352 -3.1242,0.507 -0.8059,1.4102 -2.9606,5.5332 -6.2981,6.3965 -4.6152,1.198 -6.9519,-2.5547 -6.6484,-5.5391 0.3078,-3.0293 2.266,-3.8789 3.1738,-5.4894 0.9059,-1.6121 1.3699,-2.6551 3.0769,-3.368 1.209,-0.5012 1.6594,-1.2492 1.2997,-2.2422 -0.3161,-0.8644 -1.5747,-1.0625 -2.4016,-1.1027 -1.7582,-0.0828 -2.991,0.3937 -3.8898,0.9699 -1.0457,0.6641 -1.8961,1.5899 -2.8083,3.1621 -1.0558,1.7344 -2.7187,2.4891 -4.6558,2.4891 -0.9231,0 -1.7871,-0.2449 -2.5547,-0.6387 C 15.1852,43.8625 11.5715,42.925 7.68047,42.925 l -4.3875,0 C 1.15742,49.257 0,56.041 0,63.0949 c 0,34.8492 28.25,63.0971 63.098,63.0971 34.8485,0 63.096,-28.2479 63.096,-63.0971 0,-12.6465 -3.719,-24.4211 -10.125,-34.298"
         style="fill:#100f0d;fill-opacity:1;fill-rule:nonzero;stroke:none"
         id="path2454" /><path
         d="m 76.9949,34.584 c 0.3239,-0.3152 0.8836,-1.3828 0.1989,-2.7324 -0.3829,-0.7168 -0.7958,-1.2196 -1.534,-1.8086 -0.8871,-0.7129 -2.6227,-1.5332 -5.002,-0.0254 -1.2777,0.8117 -1.3566,1.0851 -3.1226,0.8566 -1.2622,-0.166 -1.7637,1.1074 -1.311,2.168 0.4543,1.0547 2.3192,1.9109 4.6356,0.5516 1.0429,-0.6114 2.6683,-1.9071 4.0922,-0.7598 0.5894,0.4726 0.9425,0.7871 1.7609,1.7363 0.0383,0.0383 0.0898,0.0617 0.1476,0.0617 0.0512,0 0.0985,-0.0195 0.1344,-0.048"
         style="fill:#100f0d;fill-opacity:1;fill-rule:nonzero;stroke:none"
         id="path2472" /><path
         d="m 98.7043,79.8828 c -0.625,-2.0965 -1.5105,-4.7766 -5.4559,-6.8016 -0.575,-0.2949 -0.7941,0.1883 -0.5293,0.6415 1.4914,2.5359 1.7559,3.1699 2.1895,4.1699 0.6066,1.4629 0.9238,3.5441 -0.282,7.8828 -2.3727,8.5394 -7.3235,19.9536 -10.9219,23.6566 -3.4719,3.574 -9.7645,4.579 -15.4508,3.12 -2.0945,-0.537 -6.1926,-2.668 -13.791,-0.957 -13.1524,2.962 -15.1008,-3.623 -15.8539,-6.49 -0.7567,-2.871 -2.568,-11.0238 -2.568,-11.0238 -0.6047,-3.3222 -1.3949,-9.0957 19.0258,-12.9863 9.5144,-1.8109 9.9969,-4.2695 10.4176,-6.0383 0.7558,-3.1687 1.9625,-4.9832 3.3218,-5.8894 1.3586,-0.9082 0,-1.6582 -1.5082,-1.8117 -4.0519,-0.4207 -19.0261,3.8742 -27.8847,8.9082 -7.2488,4.4293 -7.3695,8.4179 -5.7102,11.8011 -10.948,1.1836 -19.1656,-1.0257 -20.6543,-6.2093 -2.5566,-8.8946 19.5551,-24.0887 44.7348,-31.7137 26.425,-8 53.6034,-2.4141 56.6244,14.1953 1.37,7.5457 -4.985,13.1277 -15.7037,15.5457 z M 65.8441,108.19 c -0.0105,0 -0.0222,-0.002 -0.0328,-0.002 -0.1133,0 -0.2039,0.087 -0.2039,0.191 0,0.077 0.0469,0.142 0.1149,0.174 1.4132,0.745 3.5211,1.34 5.9336,1.586 0.7242,0.074 1.4316,0.112 2.1129,0.117 0.1195,0 0.2386,0 0.3601,-0.001 4.0441,-0.092 7.2813,-1.7 7.234,-3.589 -0.0481,-1.893 -3.3641,-3.352 -7.4094,-3.262 -1.309,0.031 -2.5379,0.22 -3.5957,0.525 -0.1242,0.033 -0.2152,0.139 -0.2152,0.265 0,0.126 0.091,0.235 0.2183,0.267 2.5231,0.584 4.2258,1.537 4.1059,2.439 -0.1586,1.195 -3.4586,1.845 -7.3723,1.453 -0.4285,-0.045 -0.8457,-0.099 -1.2504,-0.163 z m -7.657,-12.0427 c -7.2879,-0.5278 -8.0445,-1.3149 -9.4098,-2.7684 -1.925,-2.0504 -4.4609,2.6598 -4.4609,2.6598 -1.5211,0.3199 -3.366,2.7746 -2.3715,5.0653 0.9809,2.265 2.7918,1.586 3.3594,0.881 0.6898,-0.859 2.1641,-2.2651 4.0769,-2.2139 1.9126,0.0504 4.12,0.4519 7.1981,0.4519 3.1187,0 5.2168,-1.1648 5.334,-2.1652 0.1012,-0.8543 -0.2531,-1.6594 -3.7262,-1.9105"
         style="fill:#cd1e25;fill-opacity:1;fill-rule:nonzero;stroke:none"
         id="path2474" /></g></g></svg>