<?xml version="1.0" encoding="UTF-8" standalone="no"?>
<!-- Created with Inkscape (http://www.inkscape.org/) -->

<svg
   xmlns:dc="http://purl.org/dc/elements/1.1/"
   xmlns:cc="http://creativecommons.org/ns#"
   xmlns:rdf="http://www.w3.org/1999/02/22-rdf-syntax-ns#"
   xmlns:svg="http://www.w3.org/2000/svg"
   xmlns="http://www.w3.org/2000/svg"
   xmlns:xlink="http://www.w3.org/1999/xlink"
   xmlns:sodipodi="http://sodipodi.sourceforge.net/DTD/sodipodi-0.dtd"
   xmlns:inkscape="http://www.inkscape.org/namespaces/inkscape"
   width="128"
   height="128"
   id="svg2"
   version="1.1"
   inkscape:version="0.48.4 r9939"
   sodipodi:docname="xplanetFX.svg">
  <defs
     id="defs4">
    <linearGradient
       id="linearGradient6398">
      <stop
         style="stop-color:#ffffff;stop-opacity:1;"
         offset="0"
         id="stop6400" />
      <stop
         style="stop-color:#cdcdcd;stop-opacity:1;"
         offset="1"
         id="stop6402" />
    </linearGradient>
    <radialGradient
       gradientTransform="matrix(1.5261813,0,0,1.5261813,-36.465693,-191.8168)"
       gradientUnits="userSpaceOnUse"
       r="80.852959"
       fy="360.41693"
       fx="69.302521"
       cy="360.41693"
       cx="69.302521"
       id="radialGradient5571"
       xlink:href="#linearGradient5565"
       inkscape:collect="always" />
    <linearGradient
       id="linearGradient3816">
      <stop
         id="stop3818"
         offset="0"
         style="stop-color:#003d7d;stop-opacity:1;" />
      <stop
         style="stop-color:#021f59;stop-opacity:1;"
         offset="0.70029396"
         id="stop3820" />
      <stop
         id="stop3822"
         offset="0.80430877"
         style="stop-color:#010a35;stop-opacity:1;" />
      <stop
         style="stop-color:#000000;stop-opacity:1;"
         offset="1"
         id="stop3825" />
    </linearGradient>
    <linearGradient
       id="linearGradient3827">
      <stop
         style="stop-color:#ffffff;stop-opacity:1;"
         offset="0"
         id="stop3829" />
      <stop
         id="stop3831"
         offset="0.71248245"
         style="stop-color:#ffffff;stop-opacity:0.9464286;" />
      <stop
         style="stop-color:#ffffff;stop-opacity:0.2857143;"
         offset="0.84329706"
         id="stop3835" />
      <stop
         style="stop-color:#ffffff;stop-opacity:0.27232143;"
         offset="1"
         id="stop3833" />
    </linearGradient>
    <linearGradient
       id="linearGradient3841">
      <stop
         id="stop3843"
         offset="0"
         style="stop-color:#000000;stop-opacity:1;" />
      <stop
         style="stop-color:#000000;stop-opacity:0.95535713;"
         offset="0.71248245"
         id="stop3845" />
      <stop
         id="stop3847"
         offset="0.84329706"
         style="stop-color:#000000;stop-opacity:0.2857143;" />
      <stop
         id="stop3849"
         offset="1"
         style="stop-color:#000000;stop-opacity:0.27232143;" />
    </linearGradient>
    <linearGradient
       id="linearGradient3850">
      <stop
         id="stop3852"
         offset="0"
         style="stop-color:#ffffef;stop-opacity:1;" />
      <stop
         id="stop3854"
         offset="1"
         style="stop-color:#ffc20b;stop-opacity:0;" />
    </linearGradient>
    <linearGradient
       id="linearGradient5524">
      <stop
         style="stop-color:#ffffff;stop-opacity:1;"
         offset="0"
         id="stop5526" />
      <stop
         id="stop5528"
         offset="0.44025156"
         style="stop-color:#ffffff;stop-opacity:1;" />
      <stop
         id="stop5532"
         offset="1"
         style="stop-color:#02bbff;stop-opacity:0;" />
    </linearGradient>
    <linearGradient
       id="linearGradient5534">
      <stop
         style="stop-color:#fcf6ee;stop-opacity:1;"
         offset="0"
         id="stop5536" />
      <stop
         id="stop5538"
         offset="0.54126441"
         style="stop-color:#814f25;stop-opacity:1;" />
      <stop
         style="stop-color:#3d2210;stop-opacity:1;"
         offset="0.80430877"
         id="stop5540" />
      <stop
         id="stop5542"
         offset="1"
         style="stop-color:#0c0402;stop-opacity:1;" />
    </linearGradient>
    <linearGradient
       id="linearGradient5565">
      <stop
         id="stop5567"
         offset="0"
         style="stop-color:#e9e9e5;stop-opacity:1;" />
      <stop
         style="stop-color:#8f8b80;stop-opacity:1;"
         offset="0.68720859"
         id="stop5573" />
      <stop
         id="stop5569"
         offset="1"
         style="stop-color:#0e0c09;stop-opacity:1;" />
    </linearGradient>
    <linearGradient
       inkscape:collect="always"
       xlink:href="#linearGradient6398"
       id="linearGradient6446"
       gradientUnits="userSpaceOnUse"
       x1="-1595.7885"
       y1="625.32019"
       x2="-1595.9148"
       y2="648.30115" />
    <linearGradient
       inkscape:collect="always"
       xlink:href="#linearGradient6398"
       id="linearGradient6857"
       gradientUnits="userSpaceOnUse"
       gradientTransform="translate(60.75,-19.481567)"
       x1="-1595.7885"
       y1="625.32019"
       x2="-1595.9148"
       y2="648.30115" />
    <linearGradient
       inkscape:collect="always"
       xlink:href="#linearGradient6398"
       id="linearGradient6876"
       gradientUnits="userSpaceOnUse"
       gradientTransform="translate(0.27748992,0.274319)"
       x1="-1511"
       y1="653.36218"
       x2="-1511"
       y2="668.36218" />
    <linearGradient
       inkscape:collect="always"
       xlink:href="#linearGradient6398"
       id="linearGradient6878"
       gradientUnits="userSpaceOnUse"
       gradientTransform="translate(1609,380.98714)"
       x1="-1551"
       y1="654.36218"
       x2="-1551"
       y2="668.36218" />
    <linearGradient
       inkscape:collect="always"
       xlink:href="#linearGradient6398"
       id="linearGradient6880"
       gradientUnits="userSpaceOnUse"
       gradientTransform="translate(1649.75,401.50558)"
       x1="-1595.7885"
       y1="625.32019"
       x2="-1595.9148"
       y2="648.30115" />
    <inkscape:perspective
       sodipodi:type="inkscape:persp3d"
       inkscape:vp_x="0 : 0.5 : 1"
       inkscape:vp_y="0 : 1000 : 0"
       inkscape:vp_z="1 : 0.5 : 1"
       inkscape:persp3d-origin="0.5 : 0.33333333 : 1"
       id="perspective4964" />
    <inkscape:perspective
       id="perspective4980"
       inkscape:persp3d-origin="372.04724 : 350.78739 : 1"
       inkscape:vp_z="744.09448 : 526.18109 : 1"
       inkscape:vp_y="0 : 1000 : 0"
       inkscape:vp_x="0 : 526.18109 : 1"
       sodipodi:type="inkscape:persp3d" />
    <linearGradient
       inkscape:collect="always"
       xlink:href="#linearGradient6398"
       id="linearGradient10939"
       gradientUnits="userSpaceOnUse"
       x1="-1595.7885"
       y1="625.32019"
       x2="-1595.9148"
       y2="648.30115"
       gradientTransform="translate(1607.75,403.51839)" />
    <linearGradient
       inkscape:collect="always"
       xlink:href="#linearGradient6398"
       id="linearGradient10946"
       gradientUnits="userSpaceOnUse"
       gradientTransform="translate(1607.75,-624.84381)"
       x1="-1595.7885"
       y1="625.32019"
       x2="-1595.9148"
       y2="648.30115" />
    <linearGradient
       inkscape:collect="always"
       xlink:href="#linearGradient6398"
       id="linearGradient10958"
       x1="15.979543"
       y1="1047.7018"
       x2="15.979543"
       y2="1052.7081"
       gradientUnits="userSpaceOnUse" />
    <linearGradient
       inkscape:collect="always"
       xlink:href="#linearGradient6398"
       id="linearGradient10984"
       gradientUnits="userSpaceOnUse"
       gradientTransform="translate(1607.75,-624.84381)"
       x1="-1595.7885"
       y1="625.32019"
       x2="-1595.9148"
       y2="648.30115" />
    <linearGradient
       inkscape:collect="always"
       xlink:href="#linearGradient6398"
       id="linearGradient10996"
       gradientUnits="userSpaceOnUse"
       gradientTransform="translate(1607.75,-624.84381)"
       x1="-1595.7885"
       y1="625.32019"
       x2="-1595.9148"
       y2="648.30115" />
    <linearGradient
       inkscape:collect="always"
       xlink:href="#linearGradient6398"
       id="linearGradient10998"
       gradientUnits="userSpaceOnUse"
       x1="15.979543"
       y1="1047.7018"
       x2="15.979543"
       y2="1052.7081" />
    <linearGradient
       inkscape:collect="always"
       xlink:href="#linearGradient6398"
       id="linearGradient3254"
       gradientUnits="userSpaceOnUse"
       x1="15.979543"
       y1="1047.7018"
       x2="15.979543"
       y2="1052.7081" />
    <linearGradient
       inkscape:collect="always"
       xlink:href="#linearGradient6398"
       id="linearGradient3256"
       gradientUnits="userSpaceOnUse"
       x1="15.979543"
       y1="1047.7018"
       x2="15.979543"
       y2="1052.7081" />
    <linearGradient
       inkscape:collect="always"
       xlink:href="#linearGradient6398"
       id="linearGradient3258"
       gradientUnits="userSpaceOnUse"
       x1="15.979543"
       y1="1047.7018"
       x2="15.979543"
       y2="1052.7081" />
    <linearGradient
       inkscape:collect="always"
       xlink:href="#linearGradient6398"
       id="linearGradient3261"
       gradientUnits="userSpaceOnUse"
       x1="15.979543"
       y1="1047.7018"
       x2="15.979543"
       y2="1052.7081"
       gradientTransform="scale(1.0012802,0.99872141)" />
    <linearGradient
       inkscape:collect="always"
       xlink:href="#linearGradient6398"
       id="linearGradient3264"
       gradientUnits="userSpaceOnUse"
       x1="15.979543"
       y1="1047.7018"
       x2="15.979543"
       y2="1052.7081"
       gradientTransform="matrix(5.340161,0,0,5.3265142,0,-5484.5984)" />
  </defs>
  <sodipodi:namedview
     id="base"
     pagecolor="#ffffff"
     bordercolor="#666666"
     borderopacity="1.0"
     inkscape:pageopacity="0.0"
     inkscape:pageshadow="2"
     inkscape:zoom="2.8284271"
     inkscape:cx="170.00623"
     inkscape:cy="7.785693"
     inkscape:document-units="px"
     inkscape:current-layer="layer1"
     showgrid="true"
     inkscape:snap-bbox="true"
     inkscape:snap-global="true"
     inkscape:window-width="1920"
     inkscape:window-height="1146"
     inkscape:window-x="0"
     inkscape:window-y="24"
     inkscape:window-maximized="1">
    <inkscape:grid
       type="xygrid"
       id="grid6465"
       empspacing="5"
       visible="true"
       enabled="true"
       snapvisiblegridlinesonly="true" />
  </sodipodi:namedview>
  <metadata
     id="metadata7">
    <rdf:RDF>
      <cc:Work
         rdf:about="">
        <dc:format>image/svg+xml</dc:format>
        <dc:type
           rdf:resource="http://purl.org/dc/dcmitype/StillImage" />
        <dc:title />
      </cc:Work>
    </rdf:RDF>
  </metadata>
  <g
     inkscape:label="Ebene 1"
     inkscape:groupmode="layer"
     id="layer1"
     transform="translate(0,-924.3622)">
    <g
       id="layer4"
       inkscape:label="Moon"
       style="display:none"
       transform="translate(207.24383,133.84051)">
      <path
         transform="translate(-26.25096,36.751346)"
         sodipodi:type="arc"
         style="fill:url(#radialGradient5571);fill-opacity:1;stroke:none"
         id="path5544"
         sodipodi:cx="113.40414"
         sodipodi:cy="378.19556"
         sodipodi:rx="80.852959"
         sodipodi:ry="80.852959"
         d="m 194.2571,378.19556 c 0,44.65385 -36.19911,80.85296 -80.85296,80.85296 -44.653859,0 -80.852962,-36.19911 -80.852962,-80.85296 0,-44.65386 36.199103,-80.85296 80.852962,-80.85296 44.65385,0 80.85296,36.1991 80.85296,80.85296 z" />
    </g>
    <g
       id="g10986"
       transform="matrix(5.3333333,0,0,5.3333333,0,-4560.2362)">
      <path
         inkscape:connector-curvature="0"
         id="path6420"
         transform="translate(0,1028.3622)"
         d="M 12,0 C 5.3725832,0 0,5.3725832 0,12 0,16.837381 2.876646,21.007166 7,22.90625 L 7,23.1875 7,24 7.78125,24 9,24 l 0.78125,0 0,-0.21875 C 10.504646,23.917365 11.237063,24 12,24 c 0.883846,0 1.733056,-0.09991 2.5625,-0.28125 l 0,0.28125 1.03125,0 1.5625,0 0.34375,0 0.1875,-0.25 1.5,-1.34375 1.71875,1.40625 0.1875,0.1875 0.3125,0 1.59375,0 1,0 0,-0.96875 -0.46875,-0.4375 -2.375,-2.03125 2.375,-2.1875 L 24,17.9375 24,17 22.90625,17 C 23.608992,15.474184 24,13.790036 24,12 24,5.3725832 18.627417,0 12,0 z"
         style="fill:#000000;fill-opacity:1;stroke:none" />
      <path
         inkscape:connector-curvature="0"
         id="path6392"
         transform="translate(0,1028.3622)"
         d="M 12,0.6875 C 5.7477,0.6875 0.6875,5.7478 0.6875,12 0.6875,16.456766 3.2562727,20.309503 7,22.15625 L 7,20.6875 C 3.9970169,18.951945 1.96875,15.717642 1.96875,12 1.96875,8.2711 3.9821,5.01285 7,3.28125 6.8188,3.42905 6.81745,3.5273 7.28125,3.25 8.21965,3.6134 9.13795,3.2315 10.03125,2.875 10.90365,2.5236 10.5963,2.5919 10.1875,2.125 10.775,2.0179 11.3815,1.96875 12,1.96875 c 1.2204,0 2.38685,0.19505 3.46875,0.59375 C 15.34665,3.0162 14.93,3.395 14.375,3.4375 14.3745,4.086 14.18675,4.50995 13.59375,4.53125 13.06515,5.08295 11.77595,5.766 11.03125,5.5625 10.91785,5.1008 11.7513,4.92875 10.9375,4.78125 10.1789,4.81525 9.52235,5.3269 8.78125,5.5 7.99355,5.7376 9.245,6.9008 9.375,5.875 9.567,5.1246 11.02865,5.02005 10.09375,5.84375 9.90995,6.88305 8.87585,7.4198 7.96875,6.875 7.16915,7.0167 6.5821,7.2807 6.25,8 5.7329,7.928 5.13225,7.81755 5.03125,8.59375 c 0.2623,1.3626 1.8271,-1.2673 2.4375,0.0625 0.181,0.4863 0.7113,0.86185 0.1875,0.15625 0.025,-1.1739 0.9615,0.44735 0.8125,0.96875 0.1772,0.4352 0.74935,-0.4822 1.09375,-0.5625 0.2973,-0.7995 1.0088,-0.40035 1.5625,-0.53125 0.2067,0.4263 0.79245,1.3638 -0.21875,1.125 -0.628,-0.5773 -2.26595,0.35555 -0.84375,0.59375 1.2423,0 0.04225,1.74445 -0.78125,1.09375 C 8.68785,10.9793 8.069,11.3062 7.4375,11.1875 6.5443,10.711 6.993,9.20745 5.625,9.53125 4.5177,9.04465 3.51835,10.342 2.84375,11.125 2.24815,12.2226 2.6882,13.53465 3.375,14.46875 c 1.0443,0.2219 2.2964,0.77635 2.3125,2.09375 0.4859,0.8745 0.54325,1.84775 0.78125,2.78125 0.1895935,0.255386 0.369894,0.56609 0.53125,0.875 L 7,18.8125 C 7,18.3235 7.196246,17.79915 7.59375,17.46875 7.991253,17.13835 8.491178,17 9,17 l 3.0625,0 c 0.393302,-0.413763 0.711615,-0.916986 0.875,-1.46875 C 12.5167,15.66145 11.02585,15.5086 11.78125,15 c 0.936,-0.021 2.72655,-0.7541 2.53125,-1.8125 -0.4418,-0.5929 -1.2,0.4006 -1.5625,-0.5 -0.5957,-0.4528 -0.1204,-1.2601 0.375,-0.5 0.9963,0.5578 2.26755,-0.07045 3.21875,0.65625 0.9467,-0.4339 0.6088,1.378 1.3125,1.75 0.6076,0.6242 0.37705,-1.21325 0.90625,-1.53125 0.091,-0.5423 0.5553,-1.27075 1,-1.28125 0.2022,0 0.4052,0.14825 0.5625,0.53125 -0.092,0.6285 0.76755,-0.02945 0.59375,0.78125 -0.3783,0.7001 1.21785,1.2682 0.03125,1.375 -0.1054,0.3145 0.26435,0.79485 0.65625,1.03125 -0.330847,0.890579 -0.788074,1.718005 -1.34375,2.46875 L 20.875,17.25 21.09375,17 l 1.0625,0 C 22.900264,15.491734 23.3125,13.795534 23.3125,12 23.3125,5.7478 18.2523,0.6875 12,0.6875 z M 9.375,2.3125 C 8.7718,2.5666 8.15825,2.8046 7.53125,3 8.11325,2.7115 8.7358,2.4847 9.375,2.3125 z m 1.6875,1 c -0.1526,0.233 0.1966,0.1089 0,0 z m -3.25,0.71875 c -0.2501,0.3097 0.2717,0.1052 0,0 z M 7.3125,6 C 7.089,6.3431 6.57365,6.88705 7.09375,6.59375 7.12875,6.41045 7.229,6.1713 7.3125,6 z M 6.625,6.1875 6.5625,6.21875 6.625,6.1875 z m 13.71875,0.40625 c 0.053,0.018 0.11595,0.0505 0.15625,0.0625 0.2738,0.4331 0.51275,0.86925 0.71875,1.34375 -0.054,-0.034 -0.1194,-0.07075 -0.1875,-0.09375 -0.1115,-0.5707 -1.5338,-0.7846 -0.6875,-1.3125 z M 12.96875,8.5 c 0.6054,0.2162 -0.29865,0.82225 0.34375,1.21875 0.6616,0.8028 -0.62085,1.402 -0.84375,0.5 0.2596,-0.7734 -0.8668,-1.51995 0.5,-1.71875 z m 8.6875,0.6875 c 0.2599,0.8923 0.375,1.8364 0.375,2.8125 0,0.9607 -0.1231,1.90145 -0.375,2.78125 -0.2837,-0.464 -0.28455,-1.2188 -0.65625,-1.625 0.2791,-0.268 0.9921,-0.09695 0.8125,-0.84375 -0.1933,-0.7524 -0.82675,-1.43215 -0.21875,-2.21875 0,-0.2642 0.0555,-0.58295 0.0625,-0.90625 z m -11.46875,2.625 c 0.5823,0.8191 1.0184,1.82535 1.4375,2.71875 -0.5747,0.7067 -1.1531,-0.97705 -1.375,-1.46875 -0.1292,-0.3263 -0.5747,-1.0673 -0.0625,-1.25 z M 18.5625,15 c -0.2091,0.6845 0.3905,0.047 0,0 z m -1.40625,5.625 c -0.497345,0.298896 -1.013975,0.539741 -1.5625,0.75 l 0,0.1875 -0.5,0 c -0.973866,0.315036 -2.0149,0.46875 -3.09375,0.46875 -0.761204,0 -1.506215,-0.08926 -2.21875,-0.25 l 0,1.3125 C 10.4995,23.236642 11.239761,23.3125 12,23.3125 c 0.904812,0 1.781546,-0.111975 2.625,-0.3125 l 0.40625,-0.375 2.125,-2 z"
         style="fill:url(#linearGradient10996);fill-opacity:1" />
      <path
         inkscape:connector-curvature="0"
         id="path6406"
         transform="translate(0,1028.3622)"
         d="M 12,0.6875 C 6.0542,0.6875 1.2137,5.26725 0.75,11.09375 1.3297,5.38515 6.1385,0.9375 12,0.9375 c 5.8615,0 10.6703,4.44765 11.25,10.15625 C 22.7863,5.26725 17.9458,0.6875 12,0.6875 z m -1.5625,1.65625 c -0.082,0.013 -0.1691,0.01725 -0.25,0.03125 0.1246,0.1423 0.2381,0.21175 0.3125,0.28125 0.1359,-0.091 0.0885,-0.1778 -0.0625,-0.3125 z M 9.375,2.5625 C 8.7358,2.7348 8.11335,2.9615 7.53125,3.25 8.15825,3.0546 8.7718,2.8166 9.375,2.5625 z m 6,0.21875 c -0.1813,0.352 -0.5324,0.62045 -1,0.65625 -5e-4,0.6485 -0.18825,1.07245 -0.78125,1.09375 -0.5221,0.5449 -1.78305,1.21045 -2.53125,1.03125 -0.035,0.076 -0.05525,0.1519 -0.03125,0.25 0.7447,0.2035 2.0338,-0.47955 2.5625,-1.03125 C 14.18675,4.76025 14.3745,4.336 14.375,3.6875 14.93,3.6445 15.34655,3.2662 15.46875,2.8125 15.43675,2.8005 15.407,2.79225 15.375,2.78125 z M 11.0625,3.3125 c -0.1526,0.233 0.1966,0.1089 0,0 z m -3.25,0.71875 c -0.2501,0.3097 0.2717,0.1053 0,0 z m 3.125,0.75 C 10.1789,4.81525 9.52235,5.3269 8.78125,5.5 8.54995,5.57 8.5205,5.7239 8.5625,5.875 8.6035,5.822 8.68285,5.78 8.78125,5.75 9.15185,5.663 9.49235,5.50075 9.84375,5.34375 9.87375,5.32975 9.9065,5.3255 9.9375,5.3125 c 0.3217,-0.1401 0.6532,-0.26555 1,-0.28125 0.1526,0.028 0.22635,0.0295 0.28125,0.0625 0.1085,-0.1412 0.15865,-0.2327 -0.28125,-0.3125 z M 10.34375,5.5625 c -0.049,0.074 -0.1332,0.17835 -0.25,0.28125 C 9.90985,6.88305 8.87575,7.4199 7.96875,6.875 7.16905,7.0168 6.5821,7.2807 6.25,8 5.7329,7.928 5.13225,7.81755 5.03125,8.59375 c 0.01,0.048 0.01925,0.087 0.03125,0.125 C 5.2164,8.08905 5.7652,8.1826 6.25,8.25 6.5821,7.5307 7.16905,7.2668 7.96875,7.125 c 0.907,0.5449 1.9411,0.00995 2.125,-1.03125 0.3272,-0.2882 0.3532,-0.45885 0.25,-0.53125 z M 7.3125,6 C 7.1054,6.318 6.68305,6.7872 7.03125,6.625 7.06725,6.576 7.086,6.52085 7.125,6.46875 7.171,6.30625 7.2459,6.1366 7.3125,6 z M 6.625,6.1875 6.5625,6.21875 6.625,6.1875 z m 0,0.25 L 6.5625,6.46875 6.625,6.4375 z m 13.5,0.59375 c -0.2956,0.4036 0.80875,0.6256 0.90625,1.125 0.068,0.023 0.1334,0.05975 0.1875,0.09375 C 21.16775,8.1335 21.1172,8.02035 21.0625,7.90625 l -0.03125,0 c -0.014,-0.071 -0.04575,-0.1258 -0.09375,-0.1875 -0.21,-0.2722 -0.6796,-0.468 -0.8125,-0.6875 z M 7.6875,8.84375 c -0.01,0.035 -0.02725,0.079 -0.03125,0.125 0.1914,0.2635 0.37125,0.3452 0.03125,-0.125 z m 5.46875,0.0625 c -0.046,0.181 -0.1338,0.3732 -0.0625,0.5625 0.034,-0.2132 0.1294,-0.4077 0.0625,-0.5625 z M 12.3125,9.125 C 12.2675,9.3701 12.4462,9.7106 12.5,10.0625 12.536,9.7325 12.3805,9.3913 12.3125,9.125 z M 5.21875,9.40625 c -0.9417,-0.061 -1.7848,1.03365 -2.375,1.71875 -0.1915,0.3528 -0.2477,0.7492 -0.25,1.125 0.031,-0.2908 0.101,-0.6006 0.25,-0.875 C 3.51835,10.592 4.5177,9.29465 5.625,9.78125 6.993,9.45745 6.5443,10.9611 7.4375,11.4375 8.069,11.5563 8.68795,11.2293 9.28125,11.75 c 0.6177,0.4881 1.4573,-0.3531 1.3125,-0.8125 -0.124,0.4537 -0.7978,0.9692 -1.3125,0.5625 C 8.68795,10.9793 8.069,11.3063 7.4375,11.1875 6.5443,10.7111 6.993,9.20745 5.625,9.53125 5.4866,9.47025 5.35325,9.41505 5.21875,9.40625 z M 10.3125,9.625 c -0.482,0.023 -0.91835,0.3264 -0.71875,0.5625 0.223,-0.266 0.9357,-0.4713 1.3125,-0.125 0.5226,0.1235 0.6247,-0.07405 0.5625,-0.34375 -0.045,0.1309 -0.2085,0.17715 -0.5625,0.09375 C 10.74935,9.6682 10.5316,9.6146 10.3125,9.625 z m -1.84375,0.09375 0,0.0625 c 0,0.01 0.02725,-0.01 0.03125,0 0,-0.022 -0.02725,-0.0395 -0.03125,-0.0625 z M 12.5,10.25 c 0,0.075 -0.01025,0.14335 -0.03125,0.21875 0.1881,0.7616 1.1085,0.43995 1,-0.15625 C 13.32525,10.7133 12.6817,10.8384 12.5,10.25 z m 8.84375,0.6875 c -0.071,0.5435 0.31865,1.04025 0.46875,1.59375 0,-0.067 0.022,-0.12545 0,-0.21875 -0.1208,-0.4702 -0.41745,-0.9239 -0.46875,-1.375 z m -8.875,1.40625 c -0.036,0.1725 0.04505,0.41415 0.28125,0.59375 0.3543,0.8802 1.08605,-0.04295 1.53125,0.46875 0.01,-0.074 0.04625,-0.14115 0.03125,-0.21875 -0.4418,-0.5928 -1.2,0.4005 -1.5625,-0.5 -0.139,-0.1057 -0.24585,-0.22335 -0.28125,-0.34375 z m -2.5,0.03125 c -0.022,0.3016 0.19315,0.7151 0.28125,0.9375 0.2219,0.4917 0.8003,2.17545 1.375,1.46875 -0.029,-0.062 -0.06475,-0.125 -0.09375,-0.1875 C 10.98665,15.03515 10.4603,13.5285 10.25,13.0625 10.185,12.8994 10.03185,12.6256 9.96875,12.375 z M 2,12.71875 c 0.1630756,3.517201 2.1286029,6.555257 5,8.21875 l 0,-0.25 C 4.19503,19.064591 2.2425073,16.130566 2,12.71875 z m 18.71875,0.375 c -0.04625,0.0861 -0.01705,0.170209 0,0.25 0.0256,-0.1216 0.01434,-0.186691 0,-0.25 z m 0.40625,0.25 c -0.043,0.022 -0.092,0.0305 -0.125,0.0625 0.3717,0.4062 0.37265,1.161 0.65625,1.625 0.116428,-0.406478 0.185637,-0.821387 0.25,-1.25 -0.06387,0.344675 -0.1555,0.6701 -0.25,1 -0.2444,-0.3999 -0.28815,-1.0153 -0.53125,-1.4375 z m 0,1.03125 c -0.062,0.047 -0.1614,0.07375 -0.375,0.09375 -0.026,0.079 -0.026,0.1577 0,0.25 0.4906,-0.044 0.4975,-0.16595 0.375,-0.34375 z M 18.5625,15 c -0.078,0.2567 -0.054,0.3268 0,0.3125 0.01,-0.028 -0.01,-0.0285 0,-0.0625 0.03,0 0.0425,0.02125 0.0625,0.03125 C 18.7,15.20125 18.7582,15.0235 18.5625,15 z m -6.9375,0.40625 c -0.2681,0.3628 0.7332,0.4511 1.1875,0.375 0.034,-0.086 0.098,-0.16 0.125,-0.25 -0.2827,0.088 -1.0687,0.068 -1.3125,-0.125 z m 9.71875,0.28125 c -0.308983,0.782593 -0.701787,1.516305 -1.1875,2.1875 L 20.5,17.5625 c 0.355478,-0.569051 0.669036,-1.17392 0.90625,-1.8125 -0.024,-0.014 -0.0395,-0.0455 -0.0625,-0.0625 z m -4.25,4.96875 c -0.473464,0.278019 -0.980949,0.520177 -1.5,0.71875 l 0,0.1875 -0.5625,0 c -0.960112,0.303973 -1.9703,0.46875 -3.03125,0.46875 -0.763849,0 -1.503731,-0.08968 -2.21875,-0.25 l 0,0.21875 c 0.716792,0.16512 1.448005,0.28125 2.21875,0.28125 1.618275,0 3.147659,-0.384619 4.5,-1.0625 0.0208,-0.01043 0.04178,-0.02068 0.0625,-0.03125 l 0.53125,-0.53125 z"
         style="fill:#ffffff;fill-opacity:1" />
      <path
         inkscape:connector-curvature="0"
         id="path6413"
         transform="translate(0,1028.3622)"
         d="m 12,1.71875 c -0.6185,0 -1.225,0.04905 -1.8125,0.15625 0.09,0.1031 0.1818,0.15775 0.25,0.21875 0.5108,-0.08 1.0292,-0.125 1.5625,-0.125 1.1849,0 2.3197,0.1856 3.375,0.5625 C 15.409,2.46525 15.44875,2.384 15.46875,2.3125 14.38685,1.9138 13.2204,1.71875 12,1.71875 z M 9.375,2.0625 C 8.7358,2.2348 8.11335,2.4615 7.53125,2.75 8.15825,2.5546 8.7718,2.3166 9.375,2.0625 z M 10.5,2.40625 C 10.419,2.46025 10.28575,2.5225 10.03125,2.625 9.13805,2.9815 8.21975,3.3634 7.28125,3 6.81755,3.2775 6.8188,3.17935 7,3.03125 4.6520845,4.3784287 2.9340491,6.6452423 2.28125,9.34375 2.9801062,6.7473209 4.71758,4.5908402 7,3.28125 6.8188,3.42915 6.81755,3.5272 7.28125,3.25 8.21975,3.6134 9.13805,3.231 10.03125,2.875 10.63775,2.6307 10.6696,2.56485 10.5,2.40625 z m 0.5625,0.90625 c -0.1526,0.233 0.1966,0.1089 0,0 z m -3.25,0.71875 c -0.2501,0.3097 0.2717,0.1053 0,0 z m 3.40625,0.8125 c -0.092,0.12 -0.2396,0.25665 -0.1875,0.46875 l 0.03125,0 c 0.1,-0.2143 0.33165,-0.36555 0.15625,-0.46875 z m -1.0625,0.1875 c -0.068,0 -0.13995,2.5e-4 -0.21875,0.03125 C 9.9075,5.0755 9.87375,5.08075 9.84375,5.09375 9.63725,5.19175 9.4378,5.3797 9.375,5.625 9.286,6.3302 8.6889,6.00975 8.5625,5.65625 8.3414,6.03395 9.2639,6.7517 9.375,5.875 c 0.12,-0.469 0.75095,-0.69705 0.96875,-0.59375 0.1097,-0.1967 0.0101,-0.2627 -0.1875,-0.25 z M 6.625,5.9375 6.5625,5.96875 6.625,5.9375 z M 7.3125,6 C 7.2645,6.074 7.1867,6.13605 7.125,6.21875 7.113,6.25975 7.10075,6.30675 7.09375,6.34375 7.05575,6.36575 7.05925,6.362 7.03125,6.375 6.85975,6.6092 6.75545,6.78435 7.09375,6.59375 7.12875,6.41055 7.229,6.1712 7.3125,6 z M 6.625,6.1875 6.5625,6.21875 6.625,6.1875 z m 13.71875,0.15625 c -0.2736,0.1707 -0.29665,0.3089 -0.21875,0.4375 0.042,-0.058 0.11295,-0.1215 0.21875,-0.1875 0.053,0.018 0.11595,0.0505 0.15625,0.0625 0.1668,0.2638 0.2957,0.5329 0.4375,0.8125 0.048,0.062 0.07975,0.1162 0.09375,0.1875 l 0.03125,0 C 21.1195,7.67725 21.17185,7.721 21.21875,7.75 21.01275,7.2755 20.7738,6.83935 20.5,6.40625 20.46,6.39525 20.39675,6.36275 20.34375,6.34375 z M 6.875,8.03125 c -0.6808,0.1124 -1.5604,1.2159 -1.8125,0.4375 -0.01,0.042 -0.02525,0.077 -0.03125,0.125 0.2624,1.3626 1.827,-1.2679 2.4375,0.0625 0.181,0.4863 0.7113,0.86185 0.1875,0.15625 9e-4,-0.04 0,-0.05975 0,-0.09375 -0.066,-0.091 -0.1423,-0.1909 -0.1875,-0.3125 C 7.31615,8.07385 7.1132,7.99195 6.875,8.03125 z M 7.8125,8.125 c -0.091,0 -0.14995,0.144 -0.15625,0.4375 0.014,0.019 0.01925,0.01425 0.03125,0.03125 0.1233,-0.5753 0.67115,0.2856 0.78125,0.875 C 8.52775,9.04745 8.0742,8.1125 7.8125,8.125 z M 12.96875,8.25 C 12.30925,8.346 12.2461,8.54985 12.3125,8.84375 12.3585,8.67575 12.51595,8.5658 12.96875,8.5 c 0.1135,0.04 0.1598,0.09105 0.1875,0.15625 0.044,-0.1747 0.0539,-0.31995 -0.1875,-0.40625 z M 10.25,8.4375 C 9.96575,8.4540125 9.71115,8.569 9.5625,8.96875 9.2324,9.04575 8.6984,9.8752 8.5,9.5625 8.51,9.6415 8.48475,9.72415 8.46875,9.78125 8.64595,10.21645 9.2181,9.29905 9.5625,9.21875 9.8598,8.41925 10.5713,8.8183 11.125,8.6875 c 0.1,0.206 0.28545,0.52895 0.34375,0.78125 0.083,-0.2431 -0.20935,-0.75425 -0.34375,-1.03125 -0.27685,0.0654 -0.59075,-0.016512 -0.875,0 z m 11.40625,0.5 c -0.01,0.3233 -0.0625,0.64215 -0.0625,0.90625 -0.2281,0.295 -0.2809,0.57305 -0.25,0.84375 0.024,-0.1841 0.098,-0.39705 0.25,-0.59375 0,-0.2641 0.0555,-0.58295 0.0625,-0.90625 C 21.85125,9.8567 21.9487,10.56235 22,11.28125 21.962,10.47385 21.87375,9.6842 21.65625,8.9375 z m -8.5625,0.28125 c -0.028,0.1731 -0.01495,0.3557 0.21875,0.5 0.1031,0.1251 0.13615,0.23375 0.15625,0.34375 0.059,-0.1654 0.03305,-0.36365 -0.15625,-0.59375 -0.1204,-0.074 -0.18665,-0.1641 -0.21875,-0.25 z M 12.5,9.8125 c -0.01,0.054 -0.01325,0.10205 -0.03125,0.15625 0,0.017 0.02625,0.01525 0.03125,0.03125 0,-0.063 0.01,-0.1258 0,-0.1875 z m -2.90625,0.125 c -0.1488,0.1774 -0.10015,0.37345 0.46875,0.46875 0.3106,-7e-4 0.48295,0.12815 0.53125,0.28125 0.074,-0.2722 -0.06495,-0.53235 -0.53125,-0.53125 C 9.7781,10.10825 9.66625,10.0234 9.59375,9.9375 z m 9.96875,1.59375 c -0.4447,0.011 -0.909,0.73895 -1,1.28125 -0.5292,0.3181 -0.29855,2.15555 -0.90625,1.53125 -0.7037,-0.3719 -0.3659,-2.1838 -1.3125,-1.75 -0.9512,-0.7268 -2.22245,-0.09805 -3.21875,-0.65625 -0.3798,-0.5827 -0.77295,-0.23925 -0.65625,0.15625 0.054,-0.2624 0.35735,-0.36515 0.65625,0.09375 0.9963,0.5578 2.26755,-0.07105 3.21875,0.65625 0.9466,-0.4338 0.6088,1.378 1.3125,1.75 0.6077,0.6242 0.37705,-1.21315 0.90625,-1.53125 0.091,-0.5422 0.5553,-1.27075 1,-1.28125 0.2022,0 0.4052,0.14825 0.5625,0.53125 -0.075,0.5107 0.47245,0.17505 0.59375,0.46875 0.1076,-0.7016 -0.68295,-0.10945 -0.59375,-0.71875 -0.1573,-0.383 -0.3603,-0.53625 -0.5625,-0.53125 z m -9.375,0.03125 c -0.2212,0.079 -0.25185,0.25855 -0.21875,0.46875 0.028,-0.1009 0.09105,-0.17305 0.21875,-0.21875 0.5422,0.7628 0.95025,1.68485 1.34375,2.53125 0.03,-0.024 0.06375,-0.0245 0.09375,-0.0625 -0.4191,-0.8934 -0.8552,-1.89955 -1.4375,-2.71875 z m -7.59375,0.625 c -0.025,0.8138 0.30295,1.63065 0.78125,2.28125 1.0443,0.2219 2.2964,0.77645 2.3125,2.09375 0.4859,0.8746 0.54315,1.84775 0.78125,2.78125 0.1887823,0.254298 0.3625014,0.566951 0.53125,0.875 l 0,-0.25 C 6.8337773,19.653107 6.6583435,19.34908 6.46875,19.09375 6.23065,18.16025 6.1734,17.1871 5.6875,16.3125 5.6715,14.9952 4.4193,14.44065 3.375,14.21875 2.9458,13.63485 2.64035,12.9187 2.59375,12.1875 z m 19.21875,0.125 c -0.042,0.4351 -0.5739,0.36465 -0.8125,0.59375 0.051,0.056 0.086,0.1198 0.125,0.1875 0.3183,-0.1619 0.8459,-0.12255 0.6875,-0.78125 z M 0.75,12.90625 C 1.0733776,16.969566 3.5289375,20.40486 7,22.125 l 0,-0.25 C 3.5900439,20.191694 1.1519818,16.864768 0.75,12.90625 z m 22.5,0 C 23.101034,14.373196 22.653596,15.753666 22,17 l 0.125,0 c 0.611908,-1.248698 1.009075,-2.637125 1.125,-4.09375 z m -8.96875,0.25 c -0.075,0.9346 -1.6325,1.57415 -2.5,1.59375 -0.2478,0.1669 -0.27535,0.31205 -0.15625,0.40625 0.034,-0.045 0.07805,-0.10325 0.15625,-0.15625 0.936,-0.021 2.72655,-0.754 2.53125,-1.8125 -0.01,-0.013 -0.02125,-0.02025 -0.03125,-0.03125 z m 6.4375,0.03125 c -0.112,0.3712 0.24615,0.7051 0.40625,0.9375 0.2213,-0.169 -0.30335,-0.521 -0.40625,-0.9375 z M 20.75,14.46875 c -0.099,0.2952 0.22955,0.72085 0.59375,0.96875 0.025,-0.063 0.0395,-0.1241 0.0625,-0.1875 C 21.11235,15.0727 20.8292,14.74575 20.75,14.46875 z m -2.125,0.5625 c -0.019,0.02 -0.0435,0.02725 -0.0625,0.03125 -0.1166,0.4878 0.2794,0.07875 0.0625,-0.03125 z m -5.8125,0.5 C 12.59006,16.093262 12.226429,16.591506 11.78125,17 l 0.25,0 c 0.405839,-0.420352 0.740187,-0.907874 0.90625,-1.46875 -0.028,0.01 -0.089,-0.01 -0.125,0 z M 15,22.65625 c -0.958,0.263432 -1.957537,0.40625 -3,0.40625 -0.754237,0 -1.506141,-0.04701 -2.21875,-0.1875 l 0,0.21875 c 0.720506,0.144135 1.454812,0.21875 2.21875,0.21875 0.918675,0 1.802415,-0.137383 2.65625,-0.34375 L 14.90625,22.75 15,22.65625 z"
         style="opacity:0.18731121;fill:#000000;fill-opacity:1" />
      <path
         style="font-size:10.22390079000000007px;font-style:normal;font-variant:normal;font-weight:normal;font-stretch:normal;fill:url(#linearGradient3264);fill-opacity:1;stroke:none;font-family:TR-909;-inkscape-font-specification:TR-909"
         d="M 47.9375 94.96875 C 43.672082 94.969283 41.562497 96.73565 41.5625 100.28125 L 41.5625 123.6875 L 47.9375 123.6875 L 47.9375 110.9375 L 78.875 110.9375 L 78.875 105.625 L 47.9375 105.625 L 47.9375 101.34375 C 47.93749 100.63228 48.320339 100.28125 49.03125 100.28125 L 78.875 100.28125 L 78.875 94.96875 L 47.9375 94.96875 z M 83.15625 94.96875 L 98.0625 109.875 L 83.15625 123.6875 L 91.6875 123.6875 L 102.34375 114.125 L 114.0625 123.6875 L 122.59375 123.6875 L 106.59375 109.875 L 122.59375 94.96875 L 114.0625 94.96875 L 102.34375 105.625 L 91.6875 94.96875 L 83.15625 94.96875 z "
         transform="matrix(0.1875,0,0,0.1875,0,1028.3622)"
         id="path3250" />
      <path
         inkscape:connector-curvature="0"
         id="text10960"
         d="m 9,1046.1747 c -0.799766,0 -1.218751,0.3352 -1.21875,1 l 0,0.25 c -1e-6,-0.6648 0.418984,-1 1.21875,-1 l 5.78125,0 0,-0.25 -5.78125,0 z m 6.59375,0 0.25,0.25 1.34375,0 2,2 2.1875,-2 1.34375,0 0.28125,-0.25 -1.625,0 -2.1875,2 -2,-2 -1.59375,0 z m -6.59375,2 0,0.25 5.78125,0 0,-0.25 -5.78125,0 z m 9.21875,0.9063 -2.625,2.4687 0.3125,0 2.46875,-2.3125 -0.15625,-0.1562 z m 1.9375,0 -0.15625,0.1562 2.6875,2.3125 0.3125,0 -2.84375,-2.4687 z"
         style="font-size:10.22390079px;font-style:normal;font-variant:normal;font-weight:normal;font-stretch:normal;fill:#ffffff;fill-opacity:1;stroke:none;display:inline;font-family:TR-909;-inkscape-font-specification:TR-909" />
      <path
         inkscape:connector-curvature="0"
         id="text10973"
         d="m 15.59375,1046.1747 2.65625,2.6563 0.125,-0.125 -2.5,-2.5313 -0.28125,0 z m 7.09375,0 -2.6875,2.5313 0.125,0.125 2.875,-2.6563 -0.3125,0 z m -13.5,0.7188 c -0.133296,0 -0.187502,0.086 -0.1875,0.2187 l 0,0.25 c -2e-6,-0.1329 0.054204,-0.1875 0.1875,-0.1875 l 5.59375,0 0,-0.2812 -5.59375,0 z m -0.1875,2 0,0.2812 5.78125,0 0,-0.2812 -5.78125,0 z m 10.1875,0.5937 -2,1.8125 -1.3125,0 -0.28125,0.25 1.59375,0 2,-1.7812 2.1875,1.7812 1.625,0 -0.28125,-0.25 -1.34375,0 -2.1875,-1.8125 z m -11.40625,1.8125 0,0.25 1.21875,0 0,-0.25 -1.21875,0 z"
         style="font-size:10.22390079px;font-style:normal;font-variant:normal;font-weight:normal;font-stretch:normal;opacity:0.16616313;fill:#000000;fill-opacity:1;stroke:none;display:inline;font-family:TR-909;-inkscape-font-specification:TR-909" />
    </g>
  </g>
</svg>
